<svg width="269" height="42" viewBox="0 0 269 42" fill="none" xmlns="http://www.w3.org/2000/svg">
<path opacity="0.3" d="M0.460937 42L-0.0315001 41.9134L-0.134704 42.5H0.460937L0.460937 42ZM5.93294 10.896L5.60921 10.5149L5.47175 10.6317L5.4405 10.8094L5.93294 10.896ZM18.1369 0.527998V0.027998H17.9532L17.8132 0.146945L18.1369 0.527998ZM56.1529 0.527998L56.6453 0.615183L56.7493 0.027998H56.1529V0.527998ZM53.7049 14.352V14.852H54.1242L54.1973 14.4392L53.7049 14.352ZM39.8809 14.352L39.3886 14.2648L39.2846 14.852H39.8809V14.352ZM41.1049 7.44L41.5973 7.52718L41.7013 6.94H41.1049L41.1049 7.44ZM23.8249 7.44V6.94H23.6412L23.5012 7.05895L23.8249 7.44ZM19.7569 10.896L19.4332 10.5149L19.2957 10.6318L19.2645 10.8095L19.7569 10.896ZM15.5089 35.088L15.0165 35.0015L14.9135 35.588H15.5089V35.088ZM50.0689 35.088L50.5613 35.1752L50.6653 34.588H50.0689V35.088ZM48.8449 42V42.5H49.2642L49.3373 42.0872L48.8449 42ZM0.953375 42.0866L6.42538 10.9826L5.4405 10.8094L-0.0315001 41.9134L0.953375 42.0866ZM6.25666 11.2771L18.4607 0.90905L17.8132 0.146945L5.60921 10.5149L6.25666 11.2771ZM18.1369 1.028L56.1529 1.028V0.027998L18.1369 0.027998V1.028ZM55.6606 0.440812L53.2126 14.2648L54.1973 14.4392L56.6453 0.615183L55.6606 0.440812ZM53.7049 13.852H39.8809V14.852H53.7049V13.852ZM40.3733 14.4392L41.5973 7.52718L40.6126 7.35281L39.3886 14.2648L40.3733 14.4392ZM41.1049 6.94L23.8249 6.94V7.94L41.1049 7.94L41.1049 6.94ZM23.5012 7.05895L19.4332 10.5149L20.0807 11.2771L24.1487 7.82105L23.5012 7.05895ZM19.2645 10.8095L15.0165 35.0015L16.0014 35.1745L20.2494 10.9825L19.2645 10.8095ZM15.5089 35.588L50.0689 35.588V34.588L15.5089 34.588L15.5089 35.588ZM49.5766 35.0008L48.3526 41.9128L49.3373 42.0872L50.5613 35.1752L49.5766 35.0008ZM48.8449 41.5L0.460937 41.5L0.460937 42.5L48.8449 42.5V41.5ZM53.4766 42L52.9841 41.9132L52.8808 42.5H53.4766V42ZM60.7846 0.527998V0.027998L60.365 0.027998L60.2921 0.441227L60.7846 0.527998ZM74.6086 0.527998L75.1009 0.615183L75.2049 0.027998H74.6086V0.527998ZM72.1606 14.352L71.6682 14.2648L71.5642 14.852H72.1606V14.352ZM92.8966 14.352V14.852H93.3158L93.3889 14.4392L92.8966 14.352ZM95.3446 0.527998V0.027998H94.9253L94.8522 0.440812L95.3446 0.527998ZM109.169 0.527998L109.661 0.614768L109.764 0.027998H109.169V0.527998ZM101.861 42V42.5H102.28L102.353 42.0868L101.861 42ZM88.0366 42L87.5442 41.9128L87.4402 42.5H88.0366V42ZM91.7086 21.264L92.2009 21.3512L92.3049 20.764H91.7086V21.264ZM70.9726 21.264V20.764H70.5533L70.4802 21.1768L70.9726 21.264ZM67.3006 42V42.5H67.7198L67.7929 42.0872L67.3006 42ZM53.969 42.0868L61.277 0.614768L60.2921 0.441227L52.9841 41.9132L53.969 42.0868ZM60.7846 1.028H74.6086V0.027998L60.7846 0.027998V1.028ZM74.1162 0.440812L71.6682 14.2648L72.6529 14.4392L75.1009 0.615183L74.1162 0.440812ZM72.1606 14.852L92.8966 14.852V13.852L72.1606 13.852V14.852ZM93.3889 14.4392L95.8369 0.615183L94.8522 0.440812L92.4042 14.2648L93.3889 14.4392ZM95.3446 1.028L109.169 1.028V0.027998L95.3446 0.027998V1.028ZM108.676 0.441227L101.368 41.9132L102.353 42.0868L109.661 0.614768L108.676 0.441227ZM101.861 41.5H88.0366V42.5H101.861V41.5ZM88.5289 42.0872L92.2009 21.3512L91.2162 21.1768L87.5442 41.9128L88.5289 42.0872ZM91.7086 20.764H70.9726V21.764H91.7086V20.764ZM70.4802 21.1768L66.8082 41.9128L67.7929 42.0872L71.4649 21.3512L70.4802 21.1768ZM67.3006 41.5L53.4766 41.5V42.5L67.3006 42.5V41.5ZM144.724 21.264V21.764H145.145L145.217 21.3499L144.724 21.264ZM147.136 7.44L147.629 7.52594L147.731 6.94H147.136V7.44ZM129.856 7.44V6.94H129.672L129.532 7.05895L129.856 7.44ZM125.788 10.896L125.464 10.5149L125.327 10.6321L125.296 10.8105L125.788 10.896ZM123.988 21.264L123.496 21.1785L123.394 21.764H123.988V21.264ZM106.492 42L106 41.9134L105.897 42.5H106.492V42ZM111.964 10.896L111.64 10.5149L111.503 10.6317L111.472 10.8094L111.964 10.896ZM124.168 0.527998V0.027998H123.984L123.844 0.146945L124.168 0.527998ZM162.184 0.527998L162.677 0.614768L162.78 0.027998H162.184V0.527998ZM154.876 42V42.5H155.296L155.369 42.0868L154.876 42ZM141.052 42L140.56 41.9128L140.456 42.5H141.052V42ZM143.5 28.176L143.993 28.2632L144.097 27.676H143.5V28.176ZM122.764 28.176V27.676H122.345L122.272 28.0888L122.764 28.176ZM120.316 42V42.5H120.735L120.809 42.0872L120.316 42ZM145.217 21.3499L147.629 7.52594L146.644 7.35406L144.232 21.1781L145.217 21.3499ZM147.136 6.94L129.856 6.94V7.94L147.136 7.94V6.94ZM129.532 7.05895L125.464 10.5149L126.112 11.2771L130.18 7.82105L129.532 7.05895ZM125.296 10.8105L123.496 21.1785L124.481 21.3495L126.281 10.9815L125.296 10.8105ZM123.988 21.764H144.724V20.764H123.988V21.764ZM106.985 42.0866L112.457 10.9826L111.472 10.8094L106 41.9134L106.985 42.0866ZM112.288 11.2771L124.492 0.90905L123.844 0.146945L111.64 10.5149L112.288 11.2771ZM124.168 1.028L162.184 1.028V0.027998L124.168 0.027998V1.028ZM161.692 0.441227L154.384 41.9132L155.369 42.0868L162.677 0.614768L161.692 0.441227ZM154.876 41.5L141.052 41.5V42.5L154.876 42.5V41.5ZM141.545 42.0872L143.993 28.2632L143.008 28.0888L140.56 41.9128L141.545 42.0872ZM143.5 27.676H122.764V28.676H143.5V27.676ZM122.272 28.0888L119.824 41.9128L120.809 42.0872L123.257 28.2632L122.272 28.0888ZM120.316 41.5L106.492 41.5V42.5L120.316 42.5V41.5ZM159.508 42L159.015 41.9134L158.912 42.5H159.508V42ZM164.98 10.896L164.656 10.5149L164.519 10.6317L164.487 10.8094L164.98 10.896ZM177.184 0.527998V0.027998H177L176.86 0.146945L177.184 0.527998ZM215.2 0.527998L215.692 0.615183L215.796 0.027998L215.2 0.027998V0.527998ZM212.14 17.808L212.464 18.1886L212.601 18.0721L212.632 17.8952L212.14 17.808ZM199.972 28.176L199.648 27.7954L198.614 28.676L199.972 28.676V28.176ZM203.428 28.176L203.904 28.0224L203.792 27.676H203.428V28.176ZM205.66 35.088L205.184 35.2416L205.296 35.588H205.66V35.088ZM209.116 35.088L209.608 35.1752L209.712 34.588H209.116V35.088ZM207.892 42V42.5H208.311L208.384 42.0872L207.892 42ZM194.068 42L193.592 42.1536L193.704 42.5H194.068V42ZM189.604 28.176L190.08 28.0224L189.968 27.676H189.604V28.176ZM182.692 28.176L182.199 28.0888L182.095 28.676H182.692V28.176ZM183.916 21.264V20.764H183.497L183.423 21.1768L183.916 21.264ZM194.284 21.264V21.764H194.469L194.609 21.6436L194.284 21.264ZM198.316 17.808L198.641 18.1876L198.777 18.0713L198.808 17.8952L198.316 17.808ZM200.152 7.44L200.644 7.52718L200.748 6.94H200.152V7.44ZM182.872 7.44V6.94H182.688L182.548 7.05895L182.872 7.44ZM178.804 10.896L178.48 10.5149L178.343 10.6317L178.311 10.8094L178.804 10.896ZM173.332 42V42.5H173.752L173.824 42.0866L173.332 42ZM160 42.0866L165.472 10.9826L164.487 10.8094L159.015 41.9134L160 42.0866ZM165.304 11.2771L177.508 0.90905L176.86 0.146945L164.656 10.5149L165.304 11.2771ZM177.184 1.028L215.2 1.028V0.027998L177.184 0.027998V1.028ZM214.707 0.440812L211.647 17.7208L212.632 17.8952L215.692 0.615183L214.707 0.440812ZM211.816 17.4274L199.648 27.7954L200.296 28.5566L212.464 18.1886L211.816 17.4274ZM199.972 28.676H203.428V27.676H199.972V28.676ZM202.952 28.3296L205.184 35.2416L206.136 34.9344L203.904 28.0224L202.952 28.3296ZM205.66 35.588H209.116V34.588H205.66V35.588ZM208.623 35.0008L207.399 41.9128L208.384 42.0872L209.608 35.1752L208.623 35.0008ZM207.892 41.5L194.068 41.5V42.5L207.892 42.5V41.5ZM194.544 41.8464L190.08 28.0224L189.128 28.3296L193.592 42.1536L194.544 41.8464ZM189.604 27.676H182.692V28.676H189.604V27.676ZM183.184 28.2632L184.408 21.3512L183.423 21.1768L182.199 28.0888L183.184 28.2632ZM183.916 21.764H194.284V20.764H183.916V21.764ZM194.609 21.6436L198.641 18.1876L197.99 17.4284L193.958 20.8844L194.609 21.6436ZM198.808 17.8952L200.644 7.52718L199.659 7.35281L197.823 17.7208L198.808 17.8952ZM200.152 6.94L182.872 6.94V7.94L200.152 7.94V6.94ZM182.548 7.05895L178.48 10.5149L179.128 11.2771L183.196 7.82105L182.548 7.05895ZM178.311 10.8094L172.839 41.9134L173.824 42.0866L179.296 10.9826L178.311 10.8094ZM173.332 41.5H159.508V42.5H173.332V41.5ZM250.755 21.264V21.764H251.176L251.248 21.3499L250.755 21.264ZM253.167 7.44L253.66 7.52594L253.762 6.94H253.167V7.44ZM235.887 7.44V6.94H235.704L235.564 7.05895L235.887 7.44ZM231.819 10.896L231.496 10.5149L231.358 10.6321L231.327 10.8105L231.819 10.896ZM230.019 21.264L229.527 21.1785L229.425 21.764H230.019V21.264ZM212.523 42L212.031 41.9134L211.928 42.5H212.523V42ZM217.995 10.896L217.672 10.5149L217.534 10.6317L217.503 10.8094L217.995 10.896ZM230.199 0.527998V0.027998H230.016L229.876 0.146945L230.199 0.527998ZM268.215 0.527998L268.708 0.614768L268.811 0.027998H268.215V0.527998ZM260.907 42V42.5H261.327L261.4 42.0868L260.907 42ZM247.083 42L246.591 41.9128L246.487 42.5H247.083V42ZM249.531 28.176L250.024 28.2632L250.128 27.676H249.531V28.176ZM228.795 28.176V27.676H228.376L228.303 28.0888L228.795 28.176ZM226.347 42V42.5H226.767L226.84 42.0872L226.347 42ZM251.248 21.3499L253.66 7.52594L252.675 7.35406L250.263 21.1781L251.248 21.3499ZM253.167 6.94H235.887V7.94H253.167V6.94ZM235.564 7.05895L231.496 10.5149L232.143 11.2771L236.211 7.82105L235.564 7.05895ZM231.327 10.8105L229.527 21.1785L230.512 21.3495L232.312 10.9815L231.327 10.8105ZM230.019 21.764L250.755 21.764V20.764L230.019 20.764V21.764ZM213.016 42.0866L218.488 10.9826L217.503 10.8094L212.031 41.9134L213.016 42.0866ZM218.319 11.2771L230.523 0.90905L229.876 0.146945L217.672 10.5149L218.319 11.2771ZM230.199 1.028L268.215 1.028V0.027998L230.199 0.027998V1.028ZM267.723 0.441227L260.415 41.9132L261.4 42.0868L268.708 0.614768L267.723 0.441227ZM260.907 41.5H247.083V42.5H260.907V41.5ZM247.576 42.0872L250.024 28.2632L249.039 28.0888L246.591 41.9128L247.576 42.0872ZM249.531 27.676L228.795 27.676V28.676L249.531 28.676V27.676ZM228.303 28.0888L225.855 41.9128L226.84 42.0872L229.288 28.2632L228.303 28.0888ZM226.347 41.5H212.523V42.5H226.347V41.5Z" fill="#F4F4F4"/>
</svg>
