<svg width="536" height="83" viewBox="0 0 536 83" fill="none" xmlns="http://www.w3.org/2000/svg">
<path opacity="0.3" d="M0 83L-0.984875 82.8267L-1.19128 84H0L0 83ZM10.944 20.792L10.2965 20.0299L10.0216 20.2635L9.95913 20.6187L10.944 20.792ZM35.352 0.0559959V-0.944004H34.9846L34.7045 -0.70611L35.352 0.0559959ZM111.384 0.0559959L112.369 0.230366L112.577 -0.944004H111.384V0.0559959ZM106.488 27.704V28.704H107.326L107.473 27.8784L106.488 27.704ZM78.84 27.704L77.8553 27.5296L77.6474 28.704H78.84V27.704ZM81.288 13.88L82.2727 14.0544L82.4806 12.88H81.288V13.88ZM46.728 13.88V12.88H46.3606L46.0806 13.1179L46.728 13.88ZM38.592 20.792L37.9445 20.0299L37.6695 20.2636L37.6071 20.619L38.592 20.792ZM30.096 69.176L29.1111 69.0031L28.9051 70.176H30.096L30.096 69.176ZM99.216 69.176L100.201 69.3504L100.409 68.176H99.216V69.176ZM96.768 83V84H97.6065L97.7527 83.1744L96.768 83ZM0.984875 83.1733L11.9289 20.9653L9.95913 20.6187L-0.984875 82.8267L0.984875 83.1733ZM11.5915 21.5541L35.9995 0.8181L34.7045 -0.70611L10.2965 20.0299L11.5915 21.5541ZM35.352 1.056L111.384 1.056V-0.944004L35.352 -0.944004V1.056ZM110.399 -0.118376L105.503 27.5296L107.473 27.8784L112.369 0.230366L110.399 -0.118376ZM106.488 26.704H78.84V28.704H106.488V26.704ZM79.8247 27.8784L82.2727 14.0544L80.3033 13.7056L77.8553 27.5296L79.8247 27.8784ZM81.288 12.88L46.728 12.88V14.88L81.288 14.88L81.288 12.88ZM46.0806 13.1179L37.9445 20.0299L39.2395 21.5541L47.3755 14.6421L46.0806 13.1179ZM37.6071 20.619L29.1111 69.0031L31.0809 69.3489L39.5769 20.9649L37.6071 20.619ZM30.096 70.176L99.216 70.176V68.176L30.096 68.176L30.096 70.176ZM98.2313 69.0016L95.7833 82.8256L97.7527 83.1744L100.201 69.3504L98.2313 69.0016ZM96.768 82L0 82L0 84L96.768 84V82ZM106.031 83L105.046 82.8265L104.84 84H106.031V83ZM120.647 0.0559959V-0.944004H119.808L119.662 -0.117546L120.647 0.0559959ZM148.295 0.0559959L149.28 0.230366L149.488 -0.944004H148.295V0.0559959ZM143.399 27.704L142.415 27.5296L142.207 28.704H143.399V27.704ZM184.871 27.704V28.704H185.71L185.856 27.8784L184.871 27.704ZM189.767 0.0559959V-0.944004H188.929L188.783 -0.118376L189.767 0.0559959ZM217.415 0.0559959L218.4 0.229536L218.607 -0.944004H217.415V0.0559959ZM202.799 83V84H203.638L203.784 83.1735L202.799 83ZM175.151 83L174.167 82.8256L173.959 84H175.151V83ZM182.495 41.528L183.48 41.7024L183.688 40.528H182.495V41.528ZM141.023 41.528V40.528H140.185L140.039 41.3536L141.023 41.528ZM133.679 83V84H134.518L134.664 83.1744L133.679 83ZM107.016 83.1735L121.632 0.229536L119.662 -0.117546L105.046 82.8265L107.016 83.1735ZM120.647 1.056L148.295 1.056V-0.944004L120.647 -0.944004V1.056ZM147.311 -0.118376L142.415 27.5296L144.384 27.8784L149.28 0.230366L147.311 -0.118376ZM143.399 28.704L184.871 28.704V26.704L143.399 26.704V28.704ZM185.856 27.8784L190.752 0.230366L188.783 -0.118376L183.887 27.5296L185.856 27.8784ZM189.767 1.056L217.415 1.056V-0.944004L189.767 -0.944004V1.056ZM216.43 -0.117546L201.814 82.8265L203.784 83.1735L218.4 0.229536L216.43 -0.117546ZM202.799 82H175.151V84H202.799V82ZM176.136 83.1744L183.48 41.7024L181.511 41.3536L174.167 82.8256L176.136 83.1744ZM182.495 40.528H141.023V42.528H182.495V40.528ZM140.039 41.3536L132.695 82.8256L134.664 83.1744L142.008 41.7024L140.039 41.3536ZM133.679 82L106.031 82V84L133.679 84V82ZM288.526 41.528V42.528H289.367L289.512 41.6999L288.526 41.528ZM293.35 13.88L294.336 14.0519L294.54 12.88H293.35V13.88ZM258.79 13.88V12.88H258.423L258.143 13.1179L258.79 13.88ZM250.654 20.792L250.007 20.0299L249.731 20.2643L249.669 20.6209L250.654 20.792ZM247.055 41.528L246.069 41.3569L245.866 42.528H247.055V41.528ZM212.062 83L211.078 82.8267L210.871 84H212.062V83ZM223.007 20.792L222.359 20.0299L222.084 20.2635L222.022 20.6187L223.007 20.792ZM247.415 0.0559959V-0.944004H247.047L246.767 -0.70611L247.415 0.0559959ZM323.447 0.0559959L324.431 0.229536L324.638 -0.944004H323.447V0.0559959ZM308.831 83V84L309.67 84L309.815 83.1735L308.831 83ZM281.182 83L280.198 82.8256L279.99 84H281.182V83ZM286.078 55.352L287.063 55.5264L287.271 54.352H286.078V55.352ZM244.607 55.352V54.352H243.768L243.622 55.1776L244.607 55.352ZM239.71 83V84H240.549L240.695 83.1744L239.71 83ZM289.512 41.6999L294.336 14.0519L292.365 13.7081L287.541 41.3561L289.512 41.6999ZM293.35 12.88L258.79 12.88V14.88L293.35 14.88V12.88ZM258.143 13.1179L250.007 20.0299L251.302 21.5541L259.438 14.6421L258.143 13.1179ZM249.669 20.6209L246.069 41.3569L248.04 41.6991L251.64 20.9631L249.669 20.6209ZM247.055 42.528H288.526V40.528H247.055V42.528ZM213.047 83.1733L223.991 20.9653L222.022 20.6187L211.078 82.8267L213.047 83.1733ZM223.654 21.5541L248.062 0.8181L246.767 -0.70611L222.359 20.0299L223.654 21.5541ZM247.415 1.056L323.447 1.056V-0.944004L247.415 -0.944004V1.056ZM322.462 -0.117546L307.846 82.8265L309.815 83.1735L324.431 0.229536L322.462 -0.117546ZM308.831 82H281.182V84H308.831V82ZM282.167 83.1744L287.063 55.5264L285.094 55.1776L280.198 82.8256L282.167 83.1744ZM286.078 54.352H244.607V56.352H286.078V54.352ZM243.622 55.1776L238.726 82.8256L240.695 83.1744L245.591 55.5264L243.622 55.1776ZM239.71 82L212.062 82V84L239.71 84V82ZM318.094 83L317.109 82.8267L316.902 84H318.094V83ZM329.038 20.792L328.39 20.0299L328.115 20.2635L328.053 20.6187L329.038 20.792ZM353.446 0.0559959V-0.944004H353.078L352.798 -0.70611L353.446 0.0559959ZM429.478 0.0559959L430.462 0.230366L430.67 -0.944004H429.478V0.0559959ZM423.358 34.616L424.006 35.3772L424.28 35.1441L424.342 34.7904L423.358 34.616ZM399.022 55.352L398.373 54.5908L396.306 56.352L399.022 56.352V55.352ZM405.934 55.352L406.885 55.0447L406.662 54.352H405.934V55.352ZM410.398 69.176L409.446 69.4833L409.67 70.176H410.398V69.176ZM417.31 69.176L418.294 69.3504L418.502 68.176H417.31V69.176ZM414.862 83V84H415.7L415.846 83.1744L414.862 83ZM387.214 83L386.262 83.3073L386.486 84H387.214V83ZM378.286 55.352L379.237 55.0447L379.014 54.352H378.286V55.352ZM364.462 55.352L363.477 55.1776L363.269 56.352H364.462V55.352ZM366.91 41.528V40.528H366.071L365.925 41.3536L366.91 41.528ZM387.646 41.528V42.528H388.016L388.297 42.2873L387.646 41.528ZM395.71 34.616L396.361 35.3753L396.632 35.1425L396.694 34.7904L395.71 34.616ZM399.382 13.88L400.366 14.0544L400.574 12.88H399.382V13.88ZM364.822 13.88V12.88H364.454L364.174 13.1179L364.822 13.88ZM356.686 20.792L356.038 20.0299L355.763 20.2635L355.701 20.6187L356.686 20.792ZM345.742 83V84H346.581L346.727 83.1733L345.742 83ZM319.079 83.1733L330.023 20.9653L328.053 20.6187L317.109 82.8267L319.079 83.1733ZM329.685 21.5541L354.093 0.8181L352.798 -0.70611L328.39 20.0299L329.685 21.5541ZM353.446 1.056L429.478 1.056V-0.944004L353.446 -0.944004V1.056ZM428.493 -0.118376L422.373 34.4416L424.342 34.7904L430.462 0.230366L428.493 -0.118376ZM422.709 33.8548L398.373 54.5908L399.67 56.1132L424.006 35.3772L422.709 33.8548ZM399.022 56.352H405.934V54.352H399.022V56.352ZM404.982 55.6593L409.446 69.4833L411.349 68.8687L406.885 55.0447L404.982 55.6593ZM410.398 70.176H417.31V68.176H410.398V70.176ZM416.325 69.0016L413.877 82.8256L415.846 83.1744L418.294 69.3504L416.325 69.0016ZM414.862 82L387.214 82V84L414.862 84V82ZM388.165 82.6927L379.237 55.0447L377.334 55.6593L386.262 83.3073L388.165 82.6927ZM378.286 54.352H364.462V56.352H378.286V54.352ZM365.446 55.5264L367.894 41.7024L365.925 41.3536L363.477 55.1776L365.446 55.5264ZM366.91 42.528H387.646V40.528H366.91V42.528ZM388.297 42.2873L396.361 35.3753L395.059 33.8567L386.995 40.7687L388.297 42.2873ZM396.694 34.7904L400.366 14.0544L398.397 13.7056L394.725 34.4416L396.694 34.7904ZM399.382 12.88L364.822 12.88V14.88L399.382 14.88V12.88ZM364.174 13.1179L356.038 20.0299L357.333 21.5541L365.469 14.6421L364.174 13.1179ZM355.701 20.6187L344.757 82.8267L346.727 83.1733L357.671 20.9653L355.701 20.6187ZM345.742 82H318.094V84H345.742V82ZM500.589 41.528V42.528H501.43L501.574 41.6999L500.589 41.528ZM505.413 13.88L506.398 14.0519L506.603 12.88H505.413V13.88ZM470.853 13.88V12.88H470.486L470.206 13.1179L470.853 13.88ZM462.717 20.792L462.07 20.0299L461.794 20.2643L461.732 20.6209L462.717 20.792ZM459.117 41.528L458.132 41.3569L457.928 42.528H459.117V41.528ZM424.125 83L423.14 82.8267L422.934 84H424.125V83ZM435.069 20.792L434.422 20.0299L434.147 20.2635L434.084 20.6187L435.069 20.792ZM459.477 0.0559959V-0.944004H459.11L458.83 -0.70611L459.477 0.0559959ZM535.509 0.0559959L536.494 0.229536L536.701 -0.944004H535.509V0.0559959ZM520.893 83V84H521.732L521.878 83.1735L520.893 83ZM493.245 83L492.26 82.8256L492.052 84H493.245V83ZM498.141 55.352L499.126 55.5264L499.334 54.352H498.141V55.352ZM456.669 55.352V54.352H455.831L455.684 55.1776L456.669 55.352ZM451.773 83V84H452.611L452.758 83.1744L451.773 83ZM501.574 41.6999L506.398 14.0519L504.428 13.7081L499.604 41.3561L501.574 41.6999ZM505.413 12.88H470.853V14.88H505.413V12.88ZM470.206 13.1179L462.07 20.0299L463.364 21.5541L471.5 14.6421L470.206 13.1179ZM461.732 20.6209L458.132 41.3569L460.102 41.6991L463.702 20.9631L461.732 20.6209ZM459.117 42.528L500.589 42.528V40.528L459.117 40.528V42.528ZM425.11 83.1733L436.054 20.9653L434.084 20.6187L423.14 82.8267L425.11 83.1733ZM435.716 21.5541L460.124 0.8181L458.83 -0.70611L434.422 20.0299L435.716 21.5541ZM459.477 1.056L535.509 1.056V-0.944004L459.477 -0.944004V1.056ZM534.524 -0.117546L519.908 82.8265L521.878 83.1735L536.494 0.229536L534.524 -0.117546ZM520.893 82H493.245V84H520.893V82ZM494.23 83.1744L499.126 55.5264L497.156 55.1776L492.26 82.8256L494.23 83.1744ZM498.141 54.352L456.669 54.352V56.352L498.141 56.352V54.352ZM455.684 55.1776L450.788 82.8256L452.758 83.1744L457.654 55.5264L455.684 55.1776ZM451.773 82H424.125V84H451.773V82Z" fill="#F4F4F4"/>
</svg>
