<svg width="163" height="56" viewBox="0 0 163 56" fill="none" xmlns="http://www.w3.org/2000/svg">
<path opacity="0.3" d="M0.476562 42L-0.0158751 41.9134L-0.119079 42.5H0.476562L0.476562 42ZM5.94856 10.896L5.62484 10.5149L5.48738 10.6317L5.45613 10.8094L5.94856 10.896ZM18.1526 0.527998V0.027998H17.9688L17.8288 0.146945L18.1526 0.527998ZM56.1686 0.527998L56.6609 0.615183L56.7649 0.027998H56.1686V0.527998ZM53.7206 14.352V14.852H54.1398L54.2129 14.4392L53.7206 14.352ZM39.8966 14.352L39.4042 14.2648L39.3002 14.852H39.8966V14.352ZM41.1206 7.44L41.6129 7.52718L41.7169 6.94H41.1206L41.1206 7.44ZM23.8406 7.44V6.94H23.6568L23.5168 7.05895L23.8406 7.44ZM19.7726 10.896L19.4488 10.5149L19.3109 10.6321L19.2799 10.8105L19.7726 10.896ZM17.9726 21.264L17.4799 21.1785L17.3783 21.764H17.9726V21.264ZM52.5326 21.264L53.0249 21.3512L53.1289 20.764H52.5326V21.264ZM51.3086 28.176V28.676H51.7278L51.8009 28.2632L51.3086 28.176ZM16.7486 28.176V27.676H16.3293L16.2562 28.0888L16.7486 28.176ZM14.3006 42V42.5H14.7198L14.7929 42.0872L14.3006 42ZM0.969 42.0866L6.441 10.9826L5.45613 10.8094L-0.0158751 41.9134L0.969 42.0866ZM6.27229 11.2771L18.4763 0.90905L17.8288 0.146945L5.62484 10.5149L6.27229 11.2771ZM18.1526 1.028L56.1686 1.028V0.027998L18.1526 0.027998V1.028ZM55.6762 0.440812L53.2282 14.2648L54.2129 14.4392L56.6609 0.615183L55.6762 0.440812ZM53.7206 13.852H39.8966V14.852H53.7206V13.852ZM40.3889 14.4392L41.6129 7.52718L40.6282 7.35281L39.4042 14.2648L40.3889 14.4392ZM41.1206 6.94L23.8406 6.94V7.94L41.1206 7.94L41.1206 6.94ZM23.5168 7.05895L19.4488 10.5149L20.0963 11.2771L24.1643 7.82105L23.5168 7.05895ZM19.2799 10.8105L17.4799 21.1785L18.4652 21.3495L20.2652 10.9815L19.2799 10.8105ZM17.9726 21.764L52.5326 21.764V20.764L17.9726 20.764V21.764ZM52.0402 21.1768L50.8162 28.0888L51.8009 28.2632L53.0249 21.3512L52.0402 21.1768ZM51.3086 27.676L16.7486 27.676V28.676L51.3086 28.676V27.676ZM16.2562 28.0888L13.8082 41.9128L14.7929 42.0872L17.2409 28.2632L16.2562 28.0888ZM14.3006 41.5H0.476562L0.476562 42.5H14.3006V41.5ZM91.7242 21.264V21.764H92.1445L92.2168 21.3499L91.7242 21.264ZM94.1362 7.44L94.6287 7.52594L94.731 6.94H94.1362V7.44ZM76.8562 7.44V6.94H76.6725L76.5325 7.05895L76.8562 7.44ZM72.7882 10.896L72.4645 10.5149L72.3265 10.6321L72.2956 10.8105L72.7882 10.896ZM70.9882 21.264L70.4956 21.1785L70.3939 21.764H70.9882V21.264ZM53.4922 42L52.9997 41.9134L52.8965 42.5H53.4922V42ZM58.9642 10.896L58.6405 10.5149L58.503 10.6317L58.4717 10.8094L58.9642 10.896ZM71.1682 0.527998V0.027998H70.9845L70.8445 0.146945L71.1682 0.527998ZM109.184 0.527998L109.677 0.614768L109.78 0.027998H109.184V0.527998ZM101.876 42V42.5H102.296L102.369 42.0868L101.876 42ZM88.0522 42L87.5599 41.9128L87.4559 42.5H88.0522V42ZM90.5002 28.176L90.9925 28.2632L91.0965 27.676H90.5002V28.176ZM69.7642 28.176V27.676H69.3449L69.2719 28.0888L69.7642 28.176ZM67.3162 42V42.5H67.7354L67.8085 42.0872L67.3162 42ZM92.2168 21.3499L94.6287 7.52594L93.6436 7.35406L91.2316 21.1781L92.2168 21.3499ZM94.1362 6.94L76.8562 6.94V7.94L94.1362 7.94V6.94ZM76.5325 7.05895L72.4645 10.5149L73.1119 11.2771L77.1799 7.82105L76.5325 7.05895ZM72.2956 10.8105L70.4956 21.1785L71.4808 21.3495L73.2808 10.9815L72.2956 10.8105ZM70.9882 21.764H91.7242V20.764H70.9882V21.764ZM53.9846 42.0866L59.4566 10.9826L58.4717 10.8094L52.9997 41.9134L53.9846 42.0866ZM59.2879 11.2771L71.4919 0.90905L70.8445 0.146945L58.6405 10.5149L59.2879 11.2771ZM71.1682 1.028L109.184 1.028V0.027998L71.1682 0.027998V1.028ZM108.692 0.441227L101.384 41.9132L102.369 42.0868L109.677 0.614768L108.692 0.441227ZM101.876 41.5H88.0522V42.5H101.876V41.5ZM88.5445 42.0872L90.9925 28.2632L90.0079 28.0888L87.5599 41.9128L88.5445 42.0872ZM90.5002 27.676H69.7642V28.676H90.5002V27.676ZM69.2719 28.0888L66.8238 41.9128L67.8085 42.0872L70.2565 28.2632L69.2719 28.0888ZM67.3162 41.5L53.4922 41.5V42.5L67.3162 42.5V41.5ZM138.836 35.088V35.588H139.02L139.16 35.4691L138.836 35.088ZM142.904 31.632L143.228 32.0131L143.365 31.8962L143.396 31.7185L142.904 31.632ZM147.152 7.44L147.644 7.52647L147.747 6.94H147.152V7.44ZM129.872 7.44V6.94H129.688L129.548 7.05895L129.872 7.44ZM125.804 10.896L125.48 10.5149L125.343 10.6318L125.311 10.8095L125.804 10.896ZM121.556 35.088L121.063 35.0015L120.96 35.588H121.556V35.088ZM138.62 55.824L138.144 55.9776L138.256 56.324H138.62V55.824ZM134.156 42L134.632 41.8464L134.52 41.5H134.156V42ZM106.508 42L106.015 41.9134L105.912 42.5H106.508V42ZM111.98 10.896L111.656 10.5149L111.519 10.6317L111.487 10.8094L111.98 10.896ZM124.184 0.527998V0.027998H124L123.86 0.146945L124.184 0.527998ZM162.2 0.527998L162.692 0.61463L162.795 0.027998H162.2V0.527998ZM156.728 31.632L157.052 32.0131L157.189 31.8963L157.22 31.7186L156.728 31.632ZM144.524 42L144.2 41.6189L143.163 42.5H144.524V42ZM147.98 42L148.456 41.8464L148.344 41.5H147.98V42ZM150.212 48.912L149.736 49.0656L149.848 49.412H150.212V48.912ZM153.668 48.912L154.16 48.9992L154.264 48.412H153.668V48.912ZM152.444 55.824V56.324H152.863L152.936 55.9112L152.444 55.824ZM139.16 35.4691L143.228 32.0131L142.58 31.2509L138.512 34.7069L139.16 35.4691ZM143.396 31.7185L147.644 7.52647L146.659 7.35352L142.411 31.5455L143.396 31.7185ZM147.152 6.94L129.872 6.94V7.94L147.152 7.94V6.94ZM129.548 7.05895L125.48 10.5149L126.128 11.2771L130.196 7.82105L129.548 7.05895ZM125.311 10.8095L121.063 35.0015L122.048 35.1745L126.296 10.9825L125.311 10.8095ZM121.556 35.588H138.836V34.588H121.556V35.588ZM139.096 55.6704L134.632 41.8464L133.68 42.1536L138.144 55.9776L139.096 55.6704ZM134.156 41.5L106.508 41.5V42.5L134.156 42.5V41.5ZM107 42.0866L112.472 10.9826L111.487 10.8094L106.015 41.9134L107 42.0866ZM112.304 11.2771L124.508 0.90905L123.86 0.146945L111.656 10.5149L112.304 11.2771ZM124.184 1.028L162.2 1.028V0.027998L124.184 0.027998V1.028ZM161.707 0.441365L156.235 31.5454L157.22 31.7186L162.692 0.61463L161.707 0.441365ZM156.404 31.2509L144.2 41.6189L144.848 42.3811L157.052 32.0131L156.404 31.2509ZM144.524 42.5H147.98V41.5H144.524V42.5ZM147.504 42.1536L149.736 49.0656L150.688 48.7584L148.456 41.8464L147.504 42.1536ZM150.212 49.412H153.668V48.412H150.212V49.412ZM153.175 48.8248L151.951 55.7368L152.936 55.9112L154.16 48.9992L153.175 48.8248ZM152.444 55.324H138.62V56.324H152.444V55.324Z" fill="#F4F4F4"/>
</svg>
