<svg width="324" height="111" viewBox="0 0 324 111" fill="none" xmlns="http://www.w3.org/2000/svg">
<path opacity="0.3" d="M0.453125 83L-0.53175 82.8267L-0.738158 84H0.453125L0.453125 83ZM11.3971 20.792L10.7497 20.0299L10.4748 20.2635L10.4123 20.6187L11.3971 20.792ZM35.8051 0.0559959V-0.944004H35.4377L35.1577 -0.70611L35.8051 0.0559959ZM111.837 0.0559959L112.822 0.230366L113.03 -0.944004H111.837V0.0559959ZM106.941 27.704V28.704H107.78L107.926 27.8784L106.941 27.704ZM79.2931 27.704L78.3084 27.5296L78.1005 28.704H79.2931V27.704ZM81.7411 13.88L82.7258 14.0544L82.9338 12.88H81.7411V13.88ZM47.1811 13.88V12.88H46.8137L46.5337 13.1179L47.1811 13.88ZM39.0451 20.792L38.3977 20.0299L38.1218 20.2643L38.0599 20.6209L39.0451 20.792ZM35.4451 41.528L34.4599 41.3569L34.2566 42.528H35.4451V41.528ZM104.565 41.528L105.55 41.7024L105.758 40.528H104.565V41.528ZM102.117 55.352V56.352H102.956L103.102 55.5264L102.117 55.352ZM32.9971 55.352V54.352H32.1587L32.0124 55.1776L32.9971 55.352ZM28.1011 83V84H28.9396L29.0858 83.1744L28.1011 83ZM1.438 83.1733L12.382 20.9653L10.4123 20.6187L-0.53175 82.8267L1.438 83.1733ZM12.0446 21.5541L36.4526 0.8181L35.1577 -0.70611L10.7497 20.0299L12.0446 21.5541ZM35.8051 1.056L111.837 1.056V-0.944004L35.8051 -0.944004V1.056ZM110.852 -0.118376L105.956 27.5296L107.926 27.8784L112.822 0.230366L110.852 -0.118376ZM106.941 26.704H79.2931V28.704H106.941V26.704ZM80.2778 27.8784L82.7258 14.0544L80.7564 13.7056L78.3084 27.5296L80.2778 27.8784ZM81.7411 12.88L47.1811 12.88V14.88L81.7411 14.88L81.7411 12.88ZM46.5337 13.1179L38.3977 20.0299L39.6926 21.5541L47.8286 14.6421L46.5337 13.1179ZM38.0599 20.6209L34.4599 41.3569L36.4304 41.6991L40.0304 20.9631L38.0599 20.6209ZM35.4451 42.528L104.565 42.528V40.528L35.4451 40.528V42.528ZM103.58 41.3536L101.132 55.1776L103.102 55.5264L105.55 41.7024L103.58 41.3536ZM102.117 54.352L32.9971 54.352V56.352L102.117 56.352V54.352ZM32.0124 55.1776L27.1164 82.8256L29.0858 83.1744L33.9818 55.5264L32.0124 55.1776ZM28.1011 82H0.453125L0.453125 84H28.1011V82ZM182.948 41.528V42.528H183.789L183.934 41.6999L182.948 41.528ZM187.772 13.88L188.757 14.0519L188.962 12.88H187.772V13.88ZM153.212 13.88V12.88H152.845L152.565 13.1179L153.212 13.88ZM145.076 20.792L144.429 20.0299L144.153 20.2643L144.091 20.6209L145.076 20.792ZM141.476 41.528L140.491 41.3569L140.288 42.528H141.476V41.528ZM106.484 83L105.499 82.8267L105.293 84H106.484V83ZM117.428 20.792L116.781 20.0299L116.506 20.2635L116.443 20.6187L117.428 20.792ZM141.836 0.0559959V-0.944004H141.469L141.189 -0.70611L141.836 0.0559959ZM217.868 0.0559959L218.853 0.229536L219.06 -0.944004H217.868V0.0559959ZM203.252 83V84H204.092L204.237 83.1735L203.252 83ZM175.604 83L174.62 82.8256L174.412 84H175.604V83ZM180.5 55.352L181.485 55.5264L181.693 54.352H180.5V55.352ZM139.028 55.352V54.352H138.19L138.044 55.1776L139.028 55.352ZM134.132 83V84H134.971L135.117 83.1744L134.132 83ZM183.934 41.6999L188.757 14.0519L186.787 13.7081L181.963 41.3561L183.934 41.6999ZM187.772 12.88L153.212 12.88V14.88L187.772 14.88V12.88ZM152.565 13.1179L144.429 20.0299L145.724 21.5541L153.86 14.6421L152.565 13.1179ZM144.091 20.6209L140.491 41.3569L142.462 41.6991L146.062 20.9631L144.091 20.6209ZM141.476 42.528H182.948V40.528H141.476V42.528ZM107.469 83.1733L118.413 20.9653L116.443 20.6187L105.499 82.8267L107.469 83.1733ZM118.076 21.5541L142.484 0.8181L141.189 -0.70611L116.781 20.0299L118.076 21.5541ZM141.836 1.056L217.868 1.056V-0.944004L141.836 -0.944004V1.056ZM216.884 -0.117546L202.268 82.8265L204.237 83.1735L218.853 0.229536L216.884 -0.117546ZM203.252 82H175.604V84H203.252V82ZM176.589 83.1744L181.485 55.5264L179.516 55.1776L174.62 82.8256L176.589 83.1744ZM180.5 54.352H139.028V56.352H180.5V54.352ZM138.044 55.1776L133.148 82.8256L135.117 83.1744L140.013 55.5264L138.044 55.1776ZM134.132 82L106.484 82V84L134.132 84V82ZM277.172 69.176V70.176H277.539L277.819 69.9381L277.172 69.176ZM285.308 62.264L285.955 63.0261L286.23 62.7924L286.293 62.437L285.308 62.264ZM293.804 13.88L294.789 14.0529L294.995 12.88H293.804V13.88ZM259.244 13.88V12.88H258.876L258.596 13.1179L259.244 13.88ZM251.108 20.792L250.46 20.0299L250.185 20.2636L250.123 20.619L251.108 20.792ZM242.612 69.176L241.627 69.0031L241.421 70.176H242.612V69.176ZM276.74 110.648L275.788 110.955L276.012 111.648H276.74V110.648ZM267.812 83L268.763 82.6927L268.54 82H267.812V83ZM212.516 83L211.531 82.8267L211.324 84H212.516V83ZM223.46 20.792L222.812 20.0299L222.537 20.2635L222.475 20.6187L223.46 20.792ZM247.868 0.0559959V-0.944004H247.5L247.22 -0.70611L247.868 0.0559959ZM323.9 0.0559959L324.884 0.229259L325.091 -0.944004H323.9V0.0559959ZM312.956 62.264L313.603 63.0261L313.878 62.7925L313.941 62.4373L312.956 62.264ZM288.548 83L287.9 82.2379L285.826 84H288.548V83ZM295.46 83L296.411 82.6927L296.188 82H295.46V83ZM299.924 96.824L298.972 97.1313L299.196 97.824H299.924V96.824ZM306.836 96.824L307.82 96.9984L308.028 95.824H306.836V96.824ZM304.388 110.648V111.648H305.226L305.372 110.822L304.388 110.648ZM277.819 69.9381L285.955 63.0261L284.66 61.5019L276.524 68.4139L277.819 69.9381ZM286.293 62.437L294.789 14.0529L292.819 13.707L284.323 62.091L286.293 62.437ZM293.804 12.88L259.244 12.88V14.88L293.804 14.88V12.88ZM258.596 13.1179L250.46 20.0299L251.755 21.5541L259.891 14.6421L258.596 13.1179ZM250.123 20.619L241.627 69.0031L243.597 69.3489L252.093 20.9649L250.123 20.619ZM242.612 70.176H277.172V68.176H242.612V70.176ZM277.691 110.341L268.763 82.6927L266.86 83.3073L275.788 110.955L277.691 110.341ZM267.812 82L212.516 82V84L267.812 84V82ZM213.501 83.1733L224.445 20.9653L222.475 20.6187L211.531 82.8267L213.501 83.1733ZM224.107 21.5541L248.515 0.8181L247.22 -0.70611L222.812 20.0299L224.107 21.5541ZM247.868 1.056L323.9 1.056V-0.944004L247.868 -0.944004V1.056ZM322.915 -0.11727L311.971 62.0907L313.941 62.4373L324.884 0.229259L322.915 -0.11727ZM312.308 61.5019L287.9 82.2379L289.195 83.7621L313.603 63.0261L312.308 61.5019ZM288.548 84H295.46V82H288.548V84ZM294.508 83.3073L298.972 97.1313L300.875 96.5167L296.411 82.6927L294.508 83.3073ZM299.924 97.824H306.836V95.824H299.924V97.824ZM305.851 96.6496L303.403 110.474L305.372 110.822L307.82 96.9984L305.851 96.6496ZM304.388 109.648H276.74V111.648H304.388V109.648Z" fill="#F4F4F4"/>
</svg>
