<svg width="289" height="42" viewBox="0 0 289 42" fill="none" xmlns="http://www.w3.org/2000/svg">
<path opacity="0.15" d="M0.0898437 42L-0.40257 41.9132L-0.505967 42.5H0.0898437L0.0898437 42ZM7.39784 0.527998V0.027998H6.97825L6.90543 0.441227L7.39784 0.527998ZM66.1498 0.527998L66.5359 0.210285L66.3859 0.027998H66.1498V0.527998ZM74.6818 10.896L75.1743 10.9826L75.2142 10.756L75.0679 10.5783L74.6818 10.896ZM69.2098 42V42.5H69.6296L69.7023 42.0866L69.2098 42ZM55.3858 42L54.8934 41.9134L54.7902 42.5H55.3858V42ZM60.8578 10.896L61.3503 10.9826L61.3902 10.756L61.2439 10.5783L60.8578 10.896ZM58.0138 7.44L58.3999 7.12229L58.2499 6.94H58.0138L58.0138 7.44ZM47.6458 7.44L47.6458 6.94H47.2262L47.1534 7.35331L47.6458 7.44ZM41.5618 42V42.5H41.9815L42.0543 42.0867L41.5618 42ZM27.7378 42L27.2454 41.9133L27.1421 42.5H27.7378V42ZM33.8218 7.44L34.3143 7.52669L34.4176 6.94H33.8218L33.8218 7.44ZM19.9978 7.44V6.94H19.5782L19.5054 7.35331L19.9978 7.44ZM13.9138 42V42.5H14.3335L14.4063 42.0867L13.9138 42ZM0.582257 42.0868L7.89026 0.614768L6.90543 0.441227L-0.40257 41.9132L0.582257 42.0868ZM7.39784 1.028L66.1498 1.028V0.027998L7.39784 0.027998V1.028ZM65.7638 0.84571L74.2958 11.2137L75.0679 10.5783L66.5359 0.210285L65.7638 0.84571ZM74.1894 10.8094L68.7174 41.9134L69.7023 42.0866L75.1743 10.9826L74.1894 10.8094ZM69.2098 41.5L55.3858 41.5V42.5L69.2098 42.5V41.5ZM55.8783 42.0866L61.3503 10.9826L60.3654 10.8094L54.8934 41.9134L55.8783 42.0866ZM61.2439 10.5783L58.3999 7.12229L57.6278 7.75771L60.4718 11.2137L61.2439 10.5783ZM58.0138 6.94L47.6458 6.94L47.6458 7.94L58.0138 7.94L58.0138 6.94ZM47.1534 7.35331L41.0694 41.9133L42.0543 42.0867L48.1383 7.52669L47.1534 7.35331ZM41.5618 41.5H27.7378V42.5H41.5618V41.5ZM28.2303 42.0867L34.3143 7.52669L33.3294 7.35331L27.2454 41.9133L28.2303 42.0867ZM33.8218 6.94L19.9978 6.94V7.94L33.8218 7.94L33.8218 6.94ZM19.5054 7.35331L13.4214 41.9133L14.4063 42.0867L20.4903 7.52669L19.5054 7.35331ZM13.9138 41.5H0.0898437L0.0898437 42.5H13.9138V41.5ZM112.08 21.264V21.764H112.5L112.572 21.3499L112.08 21.264ZM114.492 7.44L114.984 7.52594L115.086 6.94H114.492V7.44ZM97.2117 7.44V6.94H97.0279L96.8879 7.05895L97.2117 7.44ZM93.1437 10.896L92.8199 10.5149L92.682 10.6321L92.651 10.8105L93.1437 10.896ZM91.3437 21.264L90.851 21.1785L90.7494 21.764H91.3437V21.264ZM73.8477 42L73.3552 41.9134L73.252 42.5H73.8477V42ZM79.3197 10.896L78.9959 10.5149L78.8585 10.6317L78.8272 10.8094L79.3197 10.896ZM91.5237 0.527998V0.027998H91.3399L91.1999 0.146945L91.5237 0.527998ZM129.54 0.527998L130.032 0.614768L130.135 0.027998H129.54V0.527998ZM122.232 42V42.5H122.651L122.724 42.0868L122.232 42ZM108.408 42L107.915 41.9128L107.811 42.5H108.408V42ZM110.856 28.176L111.348 28.2632L111.452 27.676H110.856V28.176ZM90.1197 28.176V27.676H89.7004L89.6273 28.0888L90.1197 28.176ZM87.6717 42V42.5H88.0909L88.164 42.0872L87.6717 42ZM112.572 21.3499L114.984 7.52594L113.999 7.35406L111.587 21.1781L112.572 21.3499ZM114.492 6.94L97.2117 6.94V7.94L114.492 7.94V6.94ZM96.8879 7.05895L92.8199 10.5149L93.4674 11.2771L97.5354 7.82105L96.8879 7.05895ZM92.651 10.8105L90.851 21.1785L91.8363 21.3495L93.6363 10.9815L92.651 10.8105ZM91.3437 21.764L112.08 21.764V20.764L91.3437 20.764V21.764ZM74.3401 42.0866L79.8121 10.9826L78.8272 10.8094L73.3552 41.9134L74.3401 42.0866ZM79.6434 11.2771L91.8474 0.90905L91.1999 0.146945L78.9959 10.5149L79.6434 11.2771ZM91.5237 1.028L129.54 1.028V0.027998L91.5237 0.027998V1.028ZM129.047 0.441227L121.739 41.9132L122.724 42.0868L130.032 0.614768L129.047 0.441227ZM122.232 41.5L108.408 41.5V42.5L122.232 42.5V41.5ZM108.9 42.0872L111.348 28.2632L110.363 28.0888L107.915 41.9128L108.9 42.0872ZM110.856 27.676L90.1197 27.676V28.676L110.856 28.676V27.676ZM89.6273 28.0888L87.1793 41.9128L88.164 42.0872L90.612 28.2632L89.6273 28.0888ZM87.6717 41.5H73.8477V42.5H87.6717V41.5ZM126.863 42L126.371 41.9132L126.267 42.5H126.863V42ZM134.171 0.527998V0.027998H133.752L133.679 0.441227L134.171 0.527998ZM172.187 0.527998L172.573 0.210285L172.423 0.027998H172.187V0.527998ZM180.719 10.896L181.212 10.9826L181.252 10.756L181.105 10.5783L180.719 10.896ZM175.247 42V42.5H175.667L175.74 42.0866L175.247 42ZM161.423 42L160.931 41.9134L160.828 42.5H161.423V42ZM166.895 10.896L167.388 10.9826L167.428 10.756L167.281 10.5783L166.895 10.896ZM164.051 7.44L164.437 7.12229L164.287 6.94H164.051V7.44ZM146.771 7.44V6.94H146.352L146.279 7.35331L146.771 7.44ZM140.687 42V42.5H141.107L141.18 42.0867L140.687 42ZM127.356 42.0868L134.664 0.614768L133.679 0.441227L126.371 41.9132L127.356 42.0868ZM134.171 1.028L172.187 1.028V0.027998L134.171 0.027998V1.028ZM171.801 0.84571L180.333 11.2137L181.105 10.5783L172.573 0.210285L171.801 0.84571ZM180.227 10.8094L174.755 41.9134L175.74 42.0866L181.212 10.9826L180.227 10.8094ZM175.247 41.5H161.423V42.5H175.247V41.5ZM161.916 42.0866L167.388 10.9826L166.403 10.8094L160.931 41.9134L161.916 42.0866ZM167.281 10.5783L164.437 7.12229L163.665 7.75771L166.509 11.2137L167.281 10.5783ZM164.051 6.94H146.771V7.94H164.051V6.94ZM146.279 7.35331L140.195 41.9133L141.18 42.0867L147.264 7.52669L146.279 7.35331ZM140.687 41.5H126.863V42.5H140.687V41.5ZM179.879 42L179.386 41.9134L179.283 42.5H179.879V42ZM185.351 10.896L185.027 10.5149L184.89 10.6317L184.858 10.8094L185.351 10.896ZM197.555 0.527998V0.027998H197.371L197.231 0.146945L197.555 0.527998ZM235.571 0.527998L236.063 0.615183L236.167 0.027998H235.571V0.527998ZM233.123 14.352V14.852H233.542L233.615 14.4392L233.123 14.352ZM219.299 14.352L218.807 14.2648L218.703 14.852H219.299V14.352ZM220.523 7.44L221.015 7.52718L221.119 6.94H220.523V7.44ZM203.243 7.44V6.94H203.059L202.919 7.05895L203.243 7.44ZM199.175 10.896L198.851 10.5149L198.714 10.6318L198.682 10.8095L199.175 10.896ZM194.927 35.088L194.434 35.0015L194.331 35.588H194.927V35.088ZM215.663 35.088V35.588H216.082L216.155 35.1752L215.663 35.088ZM216.887 28.176L217.379 28.2632L217.483 27.676H216.887V28.176ZM203.063 28.176L202.571 28.0888L202.467 28.676H203.063V28.176ZM204.287 21.264V20.764H203.868L203.795 21.1768L204.287 21.264ZM231.935 21.264L232.427 21.3512L232.531 20.764H231.935V21.264ZM228.263 42V42.5H228.682L228.755 42.0872L228.263 42ZM180.371 42.0866L185.843 10.9826L184.858 10.8094L179.386 41.9134L180.371 42.0866ZM185.675 11.2771L197.879 0.90905L197.231 0.146945L185.027 10.5149L185.675 11.2771ZM197.555 1.028L235.571 1.028V0.027998L197.555 0.027998V1.028ZM235.079 0.440812L232.631 14.2648L233.615 14.4392L236.063 0.615183L235.079 0.440812ZM233.123 13.852L219.299 13.852V14.852L233.123 14.852V13.852ZM219.791 14.4392L221.015 7.52718L220.031 7.35281L218.807 14.2648L219.791 14.4392ZM220.523 6.94L203.243 6.94V7.94L220.523 7.94V6.94ZM202.919 7.05895L198.851 10.5149L199.499 11.2771L203.567 7.82105L202.919 7.05895ZM198.682 10.8095L194.434 35.0015L195.419 35.1745L199.667 10.9825L198.682 10.8095ZM194.927 35.588L215.663 35.588V34.588L194.927 34.588V35.588ZM216.155 35.1752L217.379 28.2632L216.395 28.0888L215.171 35.0008L216.155 35.1752ZM216.887 27.676H203.063V28.676H216.887V27.676ZM203.555 28.2632L204.779 21.3512L203.795 21.1768L202.571 28.0888L203.555 28.2632ZM204.287 21.764H231.935V20.764H204.287V21.764ZM231.443 21.1768L227.771 41.9128L228.755 42.0872L232.427 21.3512L231.443 21.1768ZM228.263 41.5L179.879 41.5V42.5L228.263 42.5V41.5ZM271.127 21.264V21.764H271.547L271.619 21.3499L271.127 21.264ZM273.539 7.44L274.031 7.52594L274.133 6.94H273.539V7.44ZM256.259 7.44V6.94H256.075L255.935 7.05895L256.259 7.44ZM252.191 10.896L251.867 10.5149L251.729 10.6321L251.698 10.8105L252.191 10.896ZM250.391 21.264L249.898 21.1785L249.796 21.764H250.391V21.264ZM232.895 42L232.402 41.9134L232.299 42.5H232.895V42ZM238.367 10.896L238.043 10.5149L237.905 10.6317L237.874 10.8094L238.367 10.896ZM250.571 0.527998V0.027998H250.387L250.247 0.146945L250.571 0.527998ZM288.587 0.527998L289.079 0.614768L289.182 0.027998H288.587V0.527998ZM281.279 42V42.5H281.698L281.771 42.0868L281.279 42ZM267.455 42L266.962 41.9128L266.858 42.5H267.455V42ZM269.903 28.176L270.395 28.2632L270.499 27.676H269.903V28.176ZM249.167 28.176V27.676H248.747L248.674 28.0888L249.167 28.176ZM246.719 42V42.5H247.138L247.211 42.0872L246.719 42ZM271.619 21.3499L274.031 7.52594L273.046 7.35406L270.634 21.1781L271.619 21.3499ZM273.539 6.94H256.259V7.94H273.539V6.94ZM255.935 7.05895L251.867 10.5149L252.514 11.2771L256.582 7.82105L255.935 7.05895ZM251.698 10.8105L249.898 21.1785L250.883 21.3495L252.683 10.9815L251.698 10.8105ZM250.391 21.764H271.127V20.764H250.391V21.764ZM233.387 42.0866L238.859 10.9826L237.874 10.8094L232.402 41.9134L233.387 42.0866ZM238.69 11.2771L250.894 0.90905L250.247 0.146945L238.043 10.5149L238.69 11.2771ZM250.571 1.028L288.587 1.028V0.027998L250.571 0.027998V1.028ZM288.094 0.441227L280.786 41.9132L281.771 42.0868L289.079 0.614768L288.094 0.441227ZM281.279 41.5H267.455V42.5H281.279V41.5ZM267.947 42.0872L270.395 28.2632L269.41 28.0888L266.962 41.9128L267.947 42.0872ZM269.903 27.676H249.167V28.676H269.903V27.676ZM248.674 28.0888L246.226 41.9128L247.211 42.0872L249.659 28.2632L248.674 28.0888ZM246.719 41.5L232.895 41.5V42.5L246.719 42.5V41.5Z" fill="#222222"/>
</svg>
