<svg width="577" height="83" viewBox="0 0 577 83" fill="none" xmlns="http://www.w3.org/2000/svg">
<path opacity="0.15" d="M0 83L-0.984827 82.8265L-1.19162 84H0L0 83ZM14.616 0.0559959V-0.944004H13.7768L13.6312 -0.117546L14.616 0.0559959ZM132.12 0.0559959L132.892 -0.57943L132.592 -0.944004H132.12V0.0559959ZM149.184 20.792L150.169 20.9653L150.249 20.512L149.956 20.1566L149.184 20.792ZM138.24 83V84H139.079L139.225 83.1733L138.24 83ZM110.592 83L109.607 82.8267L109.401 84H110.592V83ZM121.536 20.792L122.521 20.9653L122.601 20.512L122.308 20.1566L121.536 20.792ZM115.848 13.88L116.62 13.2446L116.32 12.88H115.848V13.88ZM95.112 13.88V12.88H94.2727L94.1272 13.7066L95.112 13.88ZM82.944 83V84H83.7833L83.9289 83.1734L82.944 83ZM55.296 83L54.3111 82.8266L54.1046 84H55.296V83ZM67.464 13.88L68.4489 14.0534L68.6554 12.88H67.464V13.88ZM39.816 13.88V12.88H38.9767L38.8311 13.7066L39.816 13.88ZM27.648 83V84H28.4873L28.6329 83.1734L27.648 83ZM0.984827 83.1735L15.6008 0.229536L13.6312 -0.117546L-0.984827 82.8265L0.984827 83.1735ZM14.616 1.056L132.12 1.056V-0.944004L14.616 -0.944004V1.056ZM131.348 0.69142L148.412 21.4274L149.956 20.1566L132.892 -0.57943L131.348 0.69142ZM148.199 20.6187L137.255 82.8267L139.225 83.1733L150.169 20.9653L148.199 20.6187ZM138.24 82L110.592 82V84L138.24 84V82ZM111.577 83.1733L122.521 20.9653L120.551 20.6187L109.607 82.8267L111.577 83.1733ZM122.308 20.1566L116.62 13.2446L115.076 14.5154L120.764 21.4274L122.308 20.1566ZM115.848 12.88L95.112 12.88L95.112 14.88L115.848 14.88L115.848 12.88ZM94.1272 13.7066L81.9592 82.8266L83.9289 83.1734L96.0969 14.0534L94.1272 13.7066ZM82.944 82H55.296V84H82.944V82ZM56.2809 83.1734L68.4489 14.0534L66.4791 13.7066L54.3111 82.8266L56.2809 83.1734ZM67.464 12.88L39.816 12.88V14.88L67.464 14.88L67.464 12.88ZM38.8311 13.7066L26.6631 82.8266L28.6329 83.1734L40.8009 14.0534L38.8311 13.7066ZM27.648 82H0L0 84H27.648V82ZM223.98 41.528V42.528H224.82L224.965 41.6999L223.98 41.528ZM228.804 13.88L229.789 14.0519L229.993 12.88H228.804V13.88ZM194.244 13.88V12.88H193.876L193.596 13.1179L194.244 13.88ZM186.108 20.792L185.46 20.0299L185.184 20.2643L185.122 20.6209L186.108 20.792ZM182.508 41.528L181.522 41.3569L181.319 42.528H182.508V41.528ZM147.516 83L146.531 82.8267L146.324 84H147.516V83ZM158.46 20.792L157.812 20.0299L157.537 20.2635L157.475 20.6187L158.46 20.792ZM182.868 0.0559959V-0.944004H182.5L182.22 -0.70611L182.868 0.0559959ZM258.9 0.0559959L259.884 0.229536L260.091 -0.944004H258.9V0.0559959ZM244.284 83V84H245.123L245.268 83.1735L244.284 83ZM216.636 83L215.651 82.8256L215.443 84H216.636V83ZM221.532 55.352L222.516 55.5264L222.724 54.352H221.532V55.352ZM180.06 55.352V54.352H179.221L179.075 55.1776L180.06 55.352ZM175.164 83V84H176.002L176.148 83.1744L175.164 83ZM224.965 41.6999L229.789 14.0519L227.819 13.7081L222.995 41.3561L224.965 41.6999ZM228.804 12.88L194.244 12.88V14.88L228.804 14.88V12.88ZM193.596 13.1179L185.46 20.0299L186.755 21.5541L194.891 14.6421L193.596 13.1179ZM185.122 20.6209L181.522 41.3569L183.493 41.6991L187.093 20.9631L185.122 20.6209ZM182.508 42.528L223.98 42.528V40.528L182.508 40.528V42.528ZM148.501 83.1733L159.445 20.9653L157.475 20.6187L146.531 82.8267L148.501 83.1733ZM159.107 21.5541L183.515 0.8181L182.22 -0.70611L157.812 20.0299L159.107 21.5541ZM182.868 1.056L258.9 1.056V-0.944004L182.868 -0.944004V1.056ZM257.915 -0.117546L243.299 82.8265L245.268 83.1735L259.884 0.229536L257.915 -0.117546ZM244.284 82L216.636 82V84L244.284 84V82ZM217.62 83.1744L222.516 55.5264L220.547 55.1776L215.651 82.8256L217.62 83.1744ZM221.532 54.352L180.06 54.352V56.352L221.532 56.352V54.352ZM179.075 55.1776L174.179 82.8256L176.148 83.1744L181.044 55.5264L179.075 55.1776ZM175.164 82H147.516V84H175.164V82ZM253.547 83L252.562 82.8265L252.355 84H253.547V83ZM268.163 0.0559959V-0.944004H267.324L267.178 -0.117546L268.163 0.0559959ZM344.195 0.0559959L344.967 -0.57943L344.667 -0.944004H344.195V0.0559959ZM361.259 20.792L362.244 20.9653L362.323 20.512L362.031 20.1566L361.259 20.792ZM350.315 83V84H351.154L351.3 83.1733L350.315 83ZM322.667 83L321.682 82.8267L321.476 84H322.667V83ZM333.611 20.792L334.596 20.9653L334.676 20.512L334.383 20.1566L333.611 20.792ZM327.923 13.88L328.695 13.2446L328.395 12.88H327.923V13.88ZM293.363 13.88V12.88H292.524L292.378 13.7066L293.363 13.88ZM281.195 83V84H282.034L282.18 83.1734L281.195 83ZM254.532 83.1735L269.148 0.229536L267.178 -0.117546L252.562 82.8265L254.532 83.1735ZM268.163 1.056L344.195 1.056V-0.944004L268.163 -0.944004V1.056ZM343.423 0.69142L360.487 21.4274L362.031 20.1566L344.967 -0.57943L343.423 0.69142ZM360.274 20.6187L349.33 82.8267L351.3 83.1733L362.244 20.9653L360.274 20.6187ZM350.315 82H322.667V84H350.315V82ZM323.652 83.1733L334.596 20.9653L332.626 20.6187L321.682 82.8267L323.652 83.1733ZM334.383 20.1566L328.695 13.2446L327.151 14.5154L332.839 21.4274L334.383 20.1566ZM327.923 12.88H293.363V14.88H327.923V12.88ZM292.378 13.7066L280.21 82.8266L282.18 83.1734L294.348 14.0534L292.378 13.7066ZM281.195 82H253.547V84H281.195V82ZM359.578 83L358.593 82.8267L358.387 84H359.578V83ZM370.522 20.792L369.875 20.0299L369.6 20.2635L369.537 20.6187L370.522 20.792ZM394.93 0.0559959V-0.944004H394.563L394.283 -0.70611L394.93 0.0559959ZM470.962 0.0559959L471.947 0.230366L472.155 -0.944004H470.962V0.0559959ZM466.066 27.704V28.704H466.905L467.051 27.8784L466.066 27.704ZM438.418 27.704L437.433 27.5296L437.225 28.704H438.418V27.704ZM440.866 13.88L441.851 14.0544L442.059 12.88H440.866V13.88ZM406.306 13.88V12.88H405.939L405.659 13.1179L406.306 13.88ZM398.17 20.792L397.523 20.0299L397.248 20.2636L397.185 20.619L398.17 20.792ZM389.674 69.176L388.689 69.0031L388.483 70.176H389.674V69.176ZM431.146 69.176V70.176H431.985L432.131 69.3504L431.146 69.176ZM433.594 55.352L434.579 55.5264L434.787 54.352H433.594V55.352ZM405.946 55.352L404.961 55.1776L404.753 56.352H405.946V55.352ZM408.394 41.528V40.528H407.556L407.409 41.3536L408.394 41.528ZM463.69 41.528L464.675 41.7024L464.883 40.528H463.69V41.528ZM456.346 83V84H457.185L457.331 83.1744L456.346 83ZM360.563 83.1733L371.507 20.9653L369.537 20.6187L358.593 82.8267L360.563 83.1733ZM371.17 21.5541L395.578 0.8181L394.283 -0.70611L369.875 20.0299L371.17 21.5541ZM394.93 1.056L470.962 1.056V-0.944004L394.93 -0.944004V1.056ZM469.977 -0.118376L465.081 27.5296L467.051 27.8784L471.947 0.230366L469.977 -0.118376ZM466.066 26.704L438.418 26.704V28.704L466.066 28.704V26.704ZM439.403 27.8784L441.851 14.0544L439.881 13.7056L437.433 27.5296L439.403 27.8784ZM440.866 12.88L406.306 12.88V14.88L440.866 14.88V12.88ZM405.659 13.1179L397.523 20.0299L398.818 21.5541L406.954 14.6421L405.659 13.1179ZM397.185 20.619L388.689 69.0031L390.659 69.3489L399.155 20.9649L397.185 20.619ZM389.674 70.176L431.146 70.176V68.176L389.674 68.176V70.176ZM432.131 69.3504L434.579 55.5264L432.609 55.1776L430.161 69.0016L432.131 69.3504ZM433.594 54.352H405.946V56.352H433.594V54.352ZM406.931 55.5264L409.379 41.7024L407.409 41.3536L404.961 55.1776L406.931 55.5264ZM408.394 42.528H463.69V40.528H408.394V42.528ZM462.705 41.3536L455.361 82.8256L457.331 83.1744L464.675 41.7024L462.705 41.3536ZM456.346 82L359.578 82V84L456.346 84V82ZM542.073 41.528V42.528H542.914L543.058 41.6999L542.073 41.528ZM546.897 13.88L547.883 14.0519L548.087 12.88H546.897V13.88ZM512.337 13.88V12.88H511.97L511.69 13.1179L512.337 13.88ZM504.201 20.792L503.554 20.0299L503.278 20.2643L503.216 20.6209L504.201 20.792ZM500.601 41.528L499.616 41.3569L499.413 42.528H500.601V41.528ZM465.609 83L464.625 82.8267L464.418 84H465.609V83ZM476.553 20.792L475.906 20.0299L475.631 20.2635L475.569 20.6187L476.553 20.792ZM500.961 0.0559959V-0.944004H500.594L500.314 -0.70611L500.961 0.0559959ZM576.993 0.0559959L577.978 0.229536L578.185 -0.944004H576.993V0.0559959ZM562.377 83V84H563.217L563.362 83.1735L562.377 83ZM534.729 83L533.745 82.8256L533.537 84H534.729V83ZM539.625 55.352L540.61 55.5264L540.818 54.352H539.625V55.352ZM498.153 55.352V54.352H497.315L497.169 55.1776L498.153 55.352ZM493.257 83V84H494.096L494.242 83.1744L493.257 83ZM543.058 41.6999L547.883 14.0519L545.912 13.7081L541.088 41.3561L543.058 41.6999ZM546.897 12.88H512.337V14.88H546.897V12.88ZM511.69 13.1179L503.554 20.0299L504.849 21.5541L512.985 14.6421L511.69 13.1179ZM503.216 20.6209L499.616 41.3569L501.587 41.6991L505.187 20.9631L503.216 20.6209ZM500.601 42.528H542.073V40.528H500.601V42.528ZM466.594 83.1733L477.538 20.9653L475.569 20.6187L464.625 82.8267L466.594 83.1733ZM477.201 21.5541L501.609 0.8181L500.314 -0.70611L475.906 20.0299L477.201 21.5541ZM500.961 1.056L576.993 1.056V-0.944004L500.961 -0.944004V1.056ZM576.009 -0.117546L561.393 82.8265L563.362 83.1735L577.978 0.229536L576.009 -0.117546ZM562.377 82H534.729V84H562.377V82ZM535.714 83.1744L540.61 55.5264L538.641 55.1776L533.745 82.8256L535.714 83.1744ZM539.625 54.352H498.153V56.352H539.625V54.352ZM497.169 55.1776L492.273 82.8256L494.242 83.1744L499.138 55.5264L497.169 55.1776ZM493.257 82L465.609 82V84L493.257 84V82Z" fill="#222222"/>
</svg>
