<svg width="216" height="42" viewBox="0 0 216 42" fill="none" xmlns="http://www.w3.org/2000/svg">
<path opacity="0.15" d="M0.46875 42L-0.0236876 41.9134L-0.126891 42.5H0.46875L0.46875 42ZM5.94075 10.896L5.61702 10.5149L5.47956 10.6317L5.44831 10.8094L5.94075 10.896ZM18.1448 0.527998V0.027998H17.961L17.821 0.146945L18.1448 0.527998ZM56.1608 0.527998L56.6531 0.615183L56.7571 0.027998H56.1608V0.527998ZM53.1007 17.808L53.425 18.1886L53.5618 18.0721L53.5931 17.8952L53.1007 17.808ZM40.9328 28.176V28.676H41.1169L41.257 28.5566L40.9328 28.176ZM23.6528 28.176L23.1604 28.0888L23.0564 28.676H23.6528V28.176ZM24.8768 21.264V20.764H24.4575L24.3844 21.1768L24.8768 21.264ZM35.2448 21.264V21.764H35.4297L35.5701 21.6436L35.2448 21.264ZM39.2768 17.808L39.6021 18.1876L39.7379 18.0713L39.7691 17.8952L39.2768 17.808ZM41.1128 7.44L41.6051 7.52718L41.7091 6.94H41.1128L41.1128 7.44ZM23.8328 7.44V6.94H23.649L23.509 7.05895L23.8328 7.44ZM19.7648 10.896L19.441 10.5149L19.3036 10.6317L19.2723 10.8094L19.7648 10.896ZM14.2928 42V42.5H14.7125L14.7852 42.0866L14.2928 42ZM0.961188 42.0866L6.43319 10.9826L5.44831 10.8094L-0.0236876 41.9134L0.961188 42.0866ZM6.26448 11.2771L18.4685 0.90905L17.821 0.146945L5.61702 10.5149L6.26448 11.2771ZM18.1448 1.028L56.1608 1.028V0.027998L18.1448 0.027998V1.028ZM55.6684 0.440812L52.6084 17.7208L53.5931 17.8952L56.6531 0.615183L55.6684 0.440812ZM52.7765 17.4274L40.6085 27.7954L41.257 28.5566L53.425 18.1886L52.7765 17.4274ZM40.9328 27.676H23.6528V28.676H40.9328V27.676ZM24.1451 28.2632L25.3691 21.3512L24.3844 21.1768L23.1604 28.0888L24.1451 28.2632ZM24.8768 21.764H35.2448V20.764H24.8768V21.764ZM35.5701 21.6436L39.6021 18.1876L38.9514 17.4284L34.9194 20.8844L35.5701 21.6436ZM39.7691 17.8952L41.6051 7.52718L40.6204 7.35281L38.7844 17.7208L39.7691 17.8952ZM41.1128 6.94L23.8328 6.94V7.94L41.1128 7.94L41.1128 6.94ZM23.509 7.05895L19.441 10.5149L20.0885 11.2771L24.1565 7.82105L23.509 7.05895ZM19.2723 10.8094L13.8003 41.9134L14.7852 42.0866L20.2572 10.9826L19.2723 10.8094ZM14.2928 41.5H0.46875L0.46875 42.5H14.2928V41.5ZM53.4844 42L52.992 41.9132L52.8886 42.5H53.4844V42ZM60.7924 0.527998V0.027998L60.3728 0.027998L60.3 0.441227L60.7924 0.527998ZM74.6164 0.527998L75.1088 0.614685L75.2121 0.027998H74.6164V0.527998ZM68.5324 35.088L68.0399 35.0013L67.9367 35.588H68.5324V35.088ZM103.092 35.088L103.585 35.1752L103.689 34.588H103.092V35.088ZM101.868 42V42.5H102.288L102.361 42.0872L101.868 42ZM53.9768 42.0868L61.2848 0.614768L60.3 0.441227L52.992 41.9132L53.9768 42.0868ZM60.7924 1.028H74.6164V0.027998L60.7924 0.027998V1.028ZM74.1239 0.44131L68.0399 35.0013L69.0248 35.1747L75.1088 0.614685L74.1239 0.44131ZM68.5324 35.588H103.092V34.588H68.5324V35.588ZM102.6 35.0008L101.376 41.9128L102.361 42.0872L103.585 35.1752L102.6 35.0008ZM101.868 41.5L53.4844 41.5V42.5L101.868 42.5V41.5ZM144.732 21.264V21.764H145.152L145.225 21.3499L144.732 21.264ZM147.144 7.44L147.637 7.52594L147.739 6.94H147.144V7.44ZM129.864 7.44V6.94H129.68L129.54 7.05895L129.864 7.44ZM125.796 10.896L125.472 10.5149L125.334 10.6321L125.303 10.8105L125.796 10.896ZM123.996 21.264L123.503 21.1785L123.402 21.764H123.996V21.264ZM106.5 42L106.008 41.9134L105.904 42.5H106.5V42ZM111.972 10.896L111.648 10.5149L111.511 10.6317L111.48 10.8094L111.972 10.896ZM124.176 0.527998V0.027998H123.992L123.852 0.146945L124.176 0.527998ZM162.192 0.527998L162.684 0.614768L162.788 0.027998H162.192V0.527998ZM154.884 42V42.5H155.304L155.376 42.0868L154.884 42ZM141.06 42L140.568 41.9128L140.464 42.5H141.06V42ZM143.508 28.176L144 28.2632L144.104 27.676H143.508V28.176ZM122.772 28.176V27.676H122.353L122.28 28.0888L122.772 28.176ZM120.324 42V42.5H120.743L120.816 42.0872L120.324 42ZM145.225 21.3499L147.637 7.52594L146.651 7.35406L144.239 21.1781L145.225 21.3499ZM147.144 6.94L129.864 6.94V7.94L147.144 7.94V6.94ZM129.54 7.05895L125.472 10.5149L126.12 11.2771L130.188 7.82105L129.54 7.05895ZM125.303 10.8105L123.503 21.1785L124.489 21.3495L126.289 10.9815L125.303 10.8105ZM123.996 21.764H144.732V20.764H123.996V21.764ZM106.992 42.0866L112.464 10.9826L111.48 10.8094L106.008 41.9134L106.992 42.0866ZM112.296 11.2771L124.5 0.90905L123.852 0.146945L111.648 10.5149L112.296 11.2771ZM124.176 1.028L162.192 1.028V0.027998L124.176 0.027998V1.028ZM161.7 0.441227L154.392 41.9132L155.376 42.0868L162.684 0.614768L161.7 0.441227ZM154.884 41.5L141.06 41.5V42.5L154.884 42.5V41.5ZM141.552 42.0872L144 28.2632L143.016 28.0888L140.568 41.9128L141.552 42.0872ZM143.508 27.676H122.772V28.676H143.508V27.676ZM122.28 28.0888L119.832 41.9128L120.816 42.0872L123.264 28.2632L122.28 28.0888ZM120.324 41.5L106.5 41.5V42.5L120.324 42.5V41.5ZM159.516 42L159.023 41.9128L158.919 42.5H159.516V42ZM160.74 35.088V34.588H160.32L160.247 35.0008L160.74 35.088ZM191.844 35.088V35.588H192.027L192.167 35.4691L191.844 35.088ZM195.912 31.632L196.235 32.0131L196.373 31.8965L196.404 31.7192L195.912 31.632ZM196.524 28.176L197.016 28.2632L197.12 27.676H196.524V28.176ZM172.332 28.176L171.946 28.4945L172.096 28.676H172.332V28.176ZM163.764 17.808L163.271 17.7208L163.231 17.9484L163.378 18.1265L163.764 17.808ZM166.824 0.527998V0.027998H166.404L166.331 0.440812L166.824 0.527998ZM180.648 0.527998L181.14 0.615183L181.244 0.027998H180.648V0.527998ZM177.588 17.808L177.095 17.7208L177.055 17.9496L177.204 18.1281L177.588 17.808ZM180.468 21.264L180.084 21.5841L180.233 21.764H180.468V21.264ZM197.748 21.264V21.764H198.168L198.24 21.3504L197.748 21.264ZM201.384 0.527998V0.027998H200.964L200.891 0.441642L201.384 0.527998ZM215.208 0.527998L215.7 0.61463L215.803 0.027998L215.208 0.027998V0.527998ZM209.736 31.632L210.059 32.0131L210.197 31.8963L210.228 31.7186L209.736 31.632ZM197.532 42V42.5H197.715L197.855 42.3811L197.532 42ZM160.008 42.0872L161.232 35.1752L160.247 35.0008L159.023 41.9128L160.008 42.0872ZM160.74 35.588H191.844V34.588H160.74V35.588ZM192.167 35.4691L196.235 32.0131L195.588 31.2509L191.52 34.7069L192.167 35.4691ZM196.404 31.7192L197.016 28.2632L196.031 28.0888L195.419 31.5448L196.404 31.7192ZM196.524 27.676H172.332V28.676H196.524V27.676ZM172.717 27.8575L164.149 17.4895L163.378 18.1265L171.946 28.4945L172.717 27.8575ZM164.256 17.8952L167.316 0.615183L166.331 0.440812L163.271 17.7208L164.256 17.8952ZM166.824 1.028H180.648V0.027998L166.824 0.027998V1.028ZM180.155 0.440812L177.095 17.7208L178.08 17.8952L181.14 0.615183L180.155 0.440812ZM177.204 18.1281L180.084 21.5841L180.852 20.9439L177.972 17.4879L177.204 18.1281ZM180.468 21.764H197.748V20.764H180.468V21.764ZM198.24 21.3504L201.876 0.614353L200.891 0.441642L197.255 21.1776L198.24 21.3504ZM201.384 1.028L215.208 1.028V0.027998L201.384 0.027998V1.028ZM214.715 0.441365L209.243 31.5454L210.228 31.7186L215.7 0.61463L214.715 0.441365ZM209.412 31.2509L197.208 41.6189L197.855 42.3811L210.059 32.0131L209.412 31.2509ZM197.532 41.5H159.516V42.5H197.532V41.5Z" fill="#222222"/>
</svg>
