<svg width="430" height="83" viewBox="0 0 430 83" fill="none" xmlns="http://www.w3.org/2000/svg">
<path opacity="0.15" d="M0.4375 83L-0.547375 82.8267L-0.753783 84H0.4375L0.4375 83ZM11.3815 20.792L10.734 20.0299L10.4591 20.2635L10.3966 20.6187L11.3815 20.792ZM35.7895 0.0559959V-0.944004H35.4221L35.142 -0.70611L35.7895 0.0559959ZM111.822 0.0559959L112.806 0.230366L113.014 -0.944004H111.822V0.0559959ZM105.701 34.616L106.35 35.3772L106.624 35.1441L106.686 34.7904L105.701 34.616ZM81.3655 55.352V56.352H81.7338L82.0141 56.1132L81.3655 55.352ZM46.8055 55.352L45.8208 55.1776L45.6129 56.352H46.8055V55.352ZM49.2535 41.528V40.528H48.415L48.2688 41.3536L49.2535 41.528ZM69.9895 41.528V42.528H70.3594L70.6403 42.2873L69.9895 41.528ZM78.0535 34.616L78.7043 35.3753L78.9758 35.1425L79.0382 34.7904L78.0535 34.616ZM81.7255 13.88L82.7102 14.0544L82.9181 12.88H81.7255V13.88ZM47.1655 13.88V12.88H46.7981L46.5181 13.1179L47.1655 13.88ZM39.0295 20.792L38.382 20.0299L38.1071 20.2635L38.0446 20.6187L39.0295 20.792ZM28.0855 83V84H28.9249L29.0704 83.1733L28.0855 83ZM1.42238 83.1733L12.3664 20.9653L10.3966 20.6187L-0.547375 82.8267L1.42238 83.1733ZM12.029 21.5541L36.437 0.8181L35.142 -0.70611L10.734 20.0299L12.029 21.5541ZM35.7895 1.056L111.822 1.056V-0.944004L35.7895 -0.944004V1.056ZM110.837 -0.118376L104.717 34.4416L106.686 34.7904L112.806 0.230366L110.837 -0.118376ZM105.053 33.8548L80.7169 54.5908L82.0141 56.1132L106.35 35.3772L105.053 33.8548ZM81.3655 54.352H46.8055V56.352H81.3655V54.352ZM47.7902 55.5264L50.2382 41.7024L48.2688 41.3536L45.8208 55.1776L47.7902 55.5264ZM49.2535 42.528H69.9895V40.528H49.2535V42.528ZM70.6403 42.2873L78.7043 35.3753L77.4027 33.8567L69.3387 40.7687L70.6403 42.2873ZM79.0382 34.7904L82.7102 14.0544L80.7408 13.7056L77.0688 34.4416L79.0382 34.7904ZM81.7255 12.88L47.1655 12.88V14.88L81.7255 14.88L81.7255 12.88ZM46.5181 13.1179L38.382 20.0299L39.677 21.5541L47.813 14.6421L46.5181 13.1179ZM38.0446 20.6187L27.1006 82.8267L29.0704 83.1733L40.0144 20.9653L38.0446 20.6187ZM28.0855 82H0.4375L0.4375 84H28.0855V82ZM106.469 83L105.484 82.8265L105.277 84H106.469V83ZM121.085 0.0559959V-0.944004H120.246L120.1 -0.117546L121.085 0.0559959ZM148.733 0.0559959L149.718 0.22937L149.924 -0.944004H148.733V0.0559959ZM136.565 69.176L135.58 69.0026L135.373 70.176H136.565V69.176ZM205.685 69.176L206.669 69.3504L206.877 68.176H205.685V69.176ZM203.237 83V84H204.075L204.221 83.1744L203.237 83ZM107.454 83.1735L122.07 0.229536L120.1 -0.117546L105.484 82.8265L107.454 83.1735ZM121.085 1.056L148.733 1.056V-0.944004L121.085 -0.944004V1.056ZM147.748 -0.11738L135.58 69.0026L137.55 69.3494L149.718 0.22937L147.748 -0.11738ZM136.565 70.176H205.685V68.176H136.565V70.176ZM204.7 69.0016L202.252 82.8256L204.221 83.1744L206.669 69.3504L204.7 69.0016ZM203.237 82L106.469 82V84L203.237 84V82ZM288.964 41.528V42.528H289.805L289.949 41.6999L288.964 41.528ZM293.788 13.88L294.773 14.0519L294.978 12.88H293.788V13.88ZM259.228 13.88V12.88H258.861L258.581 13.1179L259.228 13.88ZM251.092 20.792L250.445 20.0299L250.169 20.2643L250.107 20.6209L251.092 20.792ZM247.492 41.528L246.507 41.3569L246.303 42.528H247.492V41.528ZM212.5 83L211.515 82.8267L211.309 84H212.5V83ZM223.444 20.792L222.797 20.0299L222.522 20.2635L222.459 20.6187L223.444 20.792ZM247.852 0.0559959V-0.944004H247.485L247.205 -0.70611L247.852 0.0559959ZM323.884 0.0559959L324.869 0.229536L325.076 -0.944004H323.884V0.0559959ZM309.268 83V84L310.107 84L310.253 83.1735L309.268 83ZM281.62 83L280.635 82.8256L280.427 84H281.62V83ZM286.516 55.352L287.501 55.5264L287.709 54.352H286.516V55.352ZM245.044 55.352V54.352H244.206L244.059 55.1776L245.044 55.352ZM240.148 83V84H240.986L241.133 83.1744L240.148 83ZM289.949 41.6999L294.773 14.0519L292.803 13.7081L287.979 41.3561L289.949 41.6999ZM293.788 12.88L259.228 12.88V14.88L293.788 14.88V12.88ZM258.581 13.1179L250.445 20.0299L251.739 21.5541L259.875 14.6421L258.581 13.1179ZM250.107 20.6209L246.507 41.3569L248.477 41.6991L252.077 20.9631L250.107 20.6209ZM247.492 42.528H288.964V40.528H247.492V42.528ZM213.485 83.1733L224.429 20.9653L222.459 20.6187L211.515 82.8267L213.485 83.1733ZM224.091 21.5541L248.499 0.8181L247.205 -0.70611L222.797 20.0299L224.091 21.5541ZM247.852 1.056L323.884 1.056V-0.944004L247.852 -0.944004V1.056ZM322.899 -0.117546L308.283 82.8265L310.253 83.1735L324.869 0.229536L322.899 -0.117546ZM309.268 82H281.62V84H309.268V82ZM282.605 83.1744L287.501 55.5264L285.531 55.1776L280.635 82.8256L282.605 83.1744ZM286.516 54.352H245.044V56.352H286.516V54.352ZM244.059 55.1776L239.163 82.8256L241.133 83.1744L246.029 55.5264L244.059 55.1776ZM240.148 82L212.5 82V84L240.148 84V82ZM318.531 83L317.547 82.8256L317.339 84H318.531V83ZM320.979 69.176V68.176H320.141L319.995 69.0016L320.979 69.176ZM383.187 69.176V70.176H383.555L383.835 69.9381L383.187 69.176ZM391.323 62.264L391.971 63.0261L392.245 62.793L392.308 62.4384L391.323 62.264ZM392.547 55.352L393.532 55.5264L393.74 54.352H392.547V55.352ZM344.163 55.352L343.392 55.989L343.692 56.352H344.163V55.352ZM327.027 34.616L326.043 34.4416L325.962 34.8967L326.256 35.253L327.027 34.616ZM333.147 0.0559959V-0.944004H332.309L332.163 -0.118376L333.147 0.0559959ZM360.795 0.0559959L361.78 0.230366L361.988 -0.944004H360.795V0.0559959ZM354.675 34.616L353.691 34.4416L353.61 34.8992L353.907 35.2562L354.675 34.616ZM360.435 41.528L359.667 42.1682L359.967 42.528H360.435V41.528ZM394.995 41.528V42.528H395.835L395.98 41.7007L394.995 41.528ZM402.267 0.0559959V-0.944004H401.427L401.282 -0.116716L402.267 0.0559959ZM429.915 0.0559959L430.9 0.229259L431.107 -0.944004L429.915 -0.944004V0.0559959ZM418.971 62.264L419.619 63.0261L419.894 62.7925L419.956 62.4373L418.971 62.264ZM394.563 83V84H394.931L395.211 83.7621L394.563 83ZM319.516 83.1744L321.964 69.3504L319.995 69.0016L317.547 82.8256L319.516 83.1744ZM320.979 70.176H383.187V68.176H320.979V70.176ZM383.835 69.9381L391.971 63.0261L390.676 61.5019L382.54 68.4139L383.835 69.9381ZM392.308 62.4384L393.532 55.5264L391.563 55.1776L390.339 62.0896L392.308 62.4384ZM392.547 54.352H344.163V56.352H392.547V54.352ZM344.934 54.715L327.798 33.979L326.256 35.253L343.392 55.989L344.934 54.715ZM328.012 34.7904L334.132 0.230366L332.163 -0.118376L326.043 34.4416L328.012 34.7904ZM333.147 1.056L360.795 1.056V-0.944004L333.147 -0.944004V1.056ZM359.811 -0.118376L353.691 34.4416L355.66 34.7904L361.78 0.230366L359.811 -0.118376ZM353.907 35.2562L359.667 42.1682L361.203 40.8878L355.443 33.9758L353.907 35.2562ZM360.435 42.528H394.995V40.528H360.435V42.528ZM395.98 41.7007L403.252 0.228706L401.282 -0.116716L394.01 41.3553L395.98 41.7007ZM402.267 1.056L429.915 1.056V-0.944004L402.267 -0.944004V1.056ZM428.93 -0.11727L417.986 62.0907L419.956 62.4373L430.9 0.229259L428.93 -0.11727ZM418.324 61.5019L393.916 82.2379L395.211 83.7621L419.619 63.0261L418.324 61.5019ZM394.563 82H318.531V84H394.563V82Z" fill="#222222"/>
</svg>
