<svg width="50" height="42" viewBox="0 0 375 42" fill="none" xmlns="http://www.w3.org/2000/svg">
<path opacity="0.3" d="M-7.92578 42L-8.41822 41.9134L-8.52142 42.5H-7.92578V42ZM-2.45378 10.896L-2.77751 10.5149L-2.91497 10.6317L-2.94622 10.8094L-2.45378 10.896ZM9.75022 0.527998V0.027998H9.5665L9.42649 0.146945L9.75022 0.527998ZM47.7662 0.527998L48.2586 0.615183L48.3625 0.027998H47.7662V0.527998ZM44.7062 17.808L45.0305 18.1886L45.1672 18.0721L45.1986 17.8952L44.7062 17.808ZM32.5382 28.176L32.2139 27.7954L31.1805 28.676H32.5382V28.176ZM35.9942 28.176L36.47 28.0224L36.3582 27.676H35.9942V28.176ZM38.2262 35.088L37.7504 35.2416L37.8623 35.588H38.2262V35.088ZM41.6822 35.088L42.1746 35.1752L42.2785 34.588H41.6822V35.088ZM40.4582 42V42.5H40.8775L40.9506 42.0872L40.4582 42ZM26.6342 42L26.1584 42.1536L26.2703 42.5H26.6342V42ZM22.1702 28.176L22.646 28.0224L22.5342 27.676H22.1702V28.176ZM15.2582 28.176L14.7659 28.0888L14.6619 28.676H15.2582V28.176ZM16.4822 21.264V20.764H16.063L15.9899 21.1768L16.4822 21.264ZM26.8502 21.264V21.764H27.0352L27.1756 21.6436L26.8502 21.264ZM30.8822 17.808L31.2076 18.1876L31.3434 18.0713L31.3746 17.8952L30.8822 17.808ZM32.7182 7.44L33.2106 7.52718L33.3145 6.94H32.7182L32.7182 7.44ZM15.4382 7.44V6.94H15.2545L15.1145 7.05895L15.4382 7.44ZM11.3702 10.896L11.0465 10.5149L10.909 10.6317L10.8778 10.8094L11.3702 10.896ZM5.89822 42V42.5H6.31793L6.39066 42.0866L5.89822 42ZM-7.43334 42.0866L-1.96134 10.9826L-2.94622 10.8094L-8.41822 41.9134L-7.43334 42.0866ZM-2.13005 11.2771L10.0739 0.90905L9.42649 0.146945L-2.77751 10.5149L-2.13005 11.2771ZM9.75022 1.028L47.7662 1.028V0.027998L9.75022 0.027998V1.028ZM47.2739 0.440812L44.2139 17.7208L45.1986 17.8952L48.2586 0.615183L47.2739 0.440812ZM44.3819 17.4274L32.2139 27.7954L32.8625 28.5566L45.0305 18.1886L44.3819 17.4274ZM32.5382 28.676H35.9942V27.676H32.5382V28.676ZM35.5184 28.3296L37.7504 35.2416L38.702 34.9344L36.47 28.0224L35.5184 28.3296ZM38.2262 35.588H41.6822V34.588H38.2262V35.588ZM41.1899 35.0008L39.9659 41.9128L40.9506 42.0872L42.1746 35.1752L41.1899 35.0008ZM40.4582 41.5H26.6342V42.5H40.4582V41.5ZM27.11 41.8464L22.646 28.0224L21.6944 28.3296L26.1584 42.1536L27.11 41.8464ZM22.1702 27.676H15.2582V28.676H22.1702V27.676ZM15.7506 28.2632L16.9746 21.3512L15.9899 21.1768L14.7659 28.0888L15.7506 28.2632ZM16.4822 21.764H26.8502V20.764H16.4822V21.764ZM27.1756 21.6436L31.2076 18.1876L30.5568 17.4284L26.5248 20.8844L27.1756 21.6436ZM31.3746 17.8952L33.2106 7.52718L32.2259 7.35281L30.3899 17.7208L31.3746 17.8952ZM32.7182 6.94L15.4382 6.94V7.94L32.7182 7.94L32.7182 6.94ZM15.1145 7.05895L11.0465 10.5149L11.6939 11.2771L15.7619 7.82105L15.1145 7.05895ZM10.8778 10.8094L5.40578 41.9134L6.39066 42.0866L11.8627 10.9826L10.8778 10.8094ZM5.89822 41.5H-7.92578V42.5H5.89822V41.5ZM77.4178 35.088V35.588H77.6016L77.7416 35.4691L77.4178 35.088ZM81.4858 31.632L81.8096 32.0131L81.9471 31.8962L81.9783 31.7185L81.4858 31.632ZM85.7338 7.44L86.2263 7.52647L86.3293 6.94H85.7338V7.44ZM68.4538 7.44V6.94H68.2701L68.1301 7.05895L68.4538 7.44ZM64.3858 10.896L64.0621 10.5149L63.9246 10.6318L63.8934 10.8095L64.3858 10.896ZM60.1378 35.088L59.6454 35.0015L59.5424 35.588H60.1378V35.088ZM45.0898 42L44.5974 41.9134L44.4942 42.5H45.0898V42ZM50.5618 10.896L50.2381 10.5149L50.1007 10.6317L50.0694 10.8094L50.5618 10.896ZM62.7658 0.527998V0.027998H62.5821L62.4421 0.146945L62.7658 0.527998ZM100.782 0.527998L101.274 0.61463L101.377 0.027998H100.782V0.527998ZM95.3098 31.632L95.6336 32.0131L95.771 31.8963L95.8023 31.7186L95.3098 31.632ZM83.1058 42V42.5H83.2896L83.4296 42.3811L83.1058 42ZM77.7416 35.4691L81.8096 32.0131L81.1621 31.2509L77.0941 34.7069L77.7416 35.4691ZM81.9783 31.7185L86.2263 7.52647L85.2414 7.35352L80.9934 31.5455L81.9783 31.7185ZM85.7338 6.94L68.4538 6.94V7.94L85.7338 7.94V6.94ZM68.1301 7.05895L64.0621 10.5149L64.7096 11.2771L68.7776 7.82105L68.1301 7.05895ZM63.8934 10.8095L59.6454 35.0015L60.6303 35.1745L64.8783 10.9825L63.8934 10.8095ZM60.1378 35.588H77.4178V34.588H60.1378V35.588ZM45.5823 42.0866L51.0543 10.9826L50.0694 10.8094L44.5974 41.9134L45.5823 42.0866ZM50.8856 11.2771L63.0896 0.90905L62.4421 0.146945L50.2381 10.5149L50.8856 11.2771ZM62.7658 1.028L100.782 1.028V0.027998L62.7658 0.027998V1.028ZM100.289 0.441365L94.8174 31.5454L95.8023 31.7186L101.274 0.61463L100.289 0.441365ZM94.9861 31.2509L82.7821 41.6189L83.4296 42.3811L95.6336 32.0131L94.9861 31.2509ZM83.1058 41.5L45.0898 41.5V42.5L83.1058 42.5V41.5ZM136.337 21.264V21.764H136.758L136.83 21.3499L136.337 21.264ZM138.749 7.44L139.242 7.52594L139.344 6.94H138.749V7.44ZM121.469 7.44V6.94H121.286L121.146 7.05895L121.469 7.44ZM117.401 10.896L117.078 10.5149L116.94 10.6321L116.909 10.8105L117.401 10.896ZM115.601 21.264L115.109 21.1785L115.007 21.764H115.601V21.264ZM98.1055 42L97.613 41.9134L97.5098 42.5H98.1055V42ZM103.577 10.896L103.254 10.5149L103.116 10.6317L103.085 10.8094L103.577 10.896ZM115.781 0.527998V0.027998H115.598L115.458 0.146945L115.781 0.527998ZM153.797 0.527998L154.29 0.614768L154.393 0.027998H153.797V0.527998ZM146.489 42V42.5L146.909 42.5L146.982 42.0868L146.489 42ZM132.665 42L132.173 41.9128L132.069 42.5H132.665V42ZM135.113 28.176L135.606 28.2632L135.71 27.676H135.113V28.176ZM114.377 28.176V27.676H113.958L113.885 28.0888L114.377 28.176ZM111.929 42V42.5H112.349L112.422 42.0872L111.929 42ZM136.83 21.3499L139.242 7.52594L138.257 7.35406L135.845 21.1781L136.83 21.3499ZM138.749 6.94L121.469 6.94V7.94L138.749 7.94V6.94ZM121.146 7.05895L117.078 10.5149L117.725 11.2771L121.793 7.82105L121.146 7.05895ZM116.909 10.8105L115.109 21.1785L116.094 21.3495L117.894 10.9815L116.909 10.8105ZM115.601 21.764H136.337V20.764H115.601V21.764ZM98.5979 42.0866L104.07 10.9826L103.085 10.8094L97.613 41.9134L98.5979 42.0866ZM103.901 11.2771L116.105 0.90905L115.458 0.146945L103.254 10.5149L103.901 11.2771ZM115.781 1.028L153.797 1.028V0.027998L115.781 0.027998V1.028ZM153.305 0.441227L145.997 41.9132L146.982 42.0868L154.29 0.614768L153.305 0.441227ZM146.489 41.5H132.665V42.5H146.489V41.5ZM133.158 42.0872L135.606 28.2632L134.621 28.0888L132.173 41.9128L133.158 42.0872ZM135.113 27.676H114.377V28.676H135.113V27.676ZM113.885 28.0888L111.437 41.9128L112.422 42.0872L114.87 28.2632L113.885 28.0888ZM111.929 41.5L98.1055 41.5V42.5L111.929 42.5V41.5ZM183.449 35.088V35.588H183.633L183.773 35.4691L183.449 35.088ZM187.517 31.632L187.841 32.0131L187.978 31.8962L188.01 31.7185L187.517 31.632ZM191.765 7.44L192.258 7.52647L192.361 6.94H191.765V7.44ZM171.029 7.44V6.94H170.609L170.537 7.35344L171.029 7.44ZM166.169 35.088L165.677 35.0014L165.574 35.588H166.169V35.088ZM151.121 42L150.629 41.9132L150.525 42.5H151.121V42ZM158.429 0.527998V0.027998H158.009L157.937 0.441227L158.429 0.527998ZM206.813 0.527998L207.306 0.61463L207.409 0.027998L206.813 0.027998V0.527998ZM201.341 31.632L201.665 32.0131L201.802 31.8963L201.834 31.7186L201.341 31.632ZM189.137 42V42.5H189.321L189.461 42.3811L189.137 42ZM183.773 35.4691L187.841 32.0131L187.193 31.2509L183.125 34.7069L183.773 35.4691ZM188.01 31.7185L192.258 7.52647L191.273 7.35352L187.025 31.5455L188.01 31.7185ZM191.765 6.94L171.029 6.94V7.94L191.765 7.94V6.94ZM170.537 7.35344L165.677 35.0014L166.662 35.1746L171.522 7.52656L170.537 7.35344ZM166.169 35.588H183.449V34.588H166.169V35.588ZM151.614 42.0868L158.922 0.614768L157.937 0.441227L150.629 41.9132L151.614 42.0868ZM158.429 1.028L206.813 1.028V0.027998L158.429 0.027998V1.028ZM206.321 0.441365L200.849 31.5454L201.834 31.7186L207.306 0.61463L206.321 0.441365ZM201.017 31.2509L188.813 41.6189L189.461 42.3811L201.665 32.0131L201.017 31.2509ZM189.137 41.5H151.121V42.5H189.137V41.5ZM204.137 42L203.644 41.9132L203.541 42.5H204.137V42ZM211.445 0.527998V0.027998H211.025L210.952 0.441227L211.445 0.527998ZM270.197 0.527998L270.583 0.210285L270.433 0.027998H270.197V0.527998ZM278.729 10.896L279.221 10.9826L279.261 10.756L279.115 10.5783L278.729 10.896ZM273.257 42V42.5H273.676L273.749 42.0866L273.257 42ZM259.433 42L258.94 41.9134L258.837 42.5H259.433V42ZM264.905 10.896L265.397 10.9826L265.437 10.756L265.291 10.5783L264.905 10.896ZM262.061 7.44L262.447 7.12229L262.297 6.94H262.061V7.44ZM251.693 7.44V6.94H251.273L251.2 7.35331L251.693 7.44ZM245.609 42V42.5H246.028L246.101 42.0867L245.609 42ZM231.785 42L231.292 41.9133L231.189 42.5H231.785V42ZM237.869 7.44L238.361 7.52669L238.464 6.94H237.869V7.44ZM224.045 7.44V6.94L223.625 6.94L223.552 7.35331L224.045 7.44ZM217.961 42V42.5H218.38L218.453 42.0867L217.961 42ZM204.629 42.0868L211.937 0.614768L210.952 0.441227L203.644 41.9132L204.629 42.0868ZM211.445 1.028L270.197 1.028V0.027998L211.445 0.027998V1.028ZM269.811 0.84571L278.343 11.2137L279.115 10.5783L270.583 0.210285L269.811 0.84571ZM278.236 10.8094L272.764 41.9134L273.749 42.0866L279.221 10.9826L278.236 10.8094ZM273.257 41.5H259.433V42.5H273.257V41.5ZM259.925 42.0866L265.397 10.9826L264.412 10.8094L258.94 41.9134L259.925 42.0866ZM265.291 10.5783L262.447 7.12229L261.675 7.75771L264.519 11.2137L265.291 10.5783ZM262.061 6.94H251.693V7.94H262.061V6.94ZM251.2 7.35331L245.116 41.9133L246.101 42.0867L252.185 7.52669L251.2 7.35331ZM245.609 41.5L231.785 41.5V42.5L245.609 42.5V41.5ZM232.277 42.0867L238.361 7.52669L237.376 7.35331L231.292 41.9133L232.277 42.0867ZM237.869 6.94H224.045V7.94H237.869V6.94ZM223.552 7.35331L217.468 41.9133L218.453 42.0867L224.537 7.52669L223.552 7.35331ZM217.961 41.5H204.137V42.5H217.961V41.5ZM316.127 21.264V21.764H316.547L316.619 21.3499L316.127 21.264ZM318.539 7.44L319.031 7.52594L319.133 6.94H318.539V7.44ZM301.259 7.44V6.94H301.075L300.935 7.05895L301.259 7.44ZM297.191 10.896L296.867 10.5149L296.729 10.6321L296.698 10.8105L297.191 10.896ZM295.391 21.264L294.898 21.1785L294.796 21.764H295.391V21.264ZM277.895 42L277.402 41.9134L277.299 42.5H277.895V42ZM283.367 10.896L283.043 10.5149L282.905 10.6317L282.874 10.8094L283.367 10.896ZM295.571 0.527998V0.027998H295.387L295.247 0.146945L295.571 0.527998ZM333.587 0.527998L334.079 0.614768L334.182 0.027998H333.587V0.527998ZM326.279 42V42.5H326.698L326.771 42.0868L326.279 42ZM312.455 42L311.962 41.9128L311.858 42.5H312.455V42ZM314.903 28.176L315.395 28.2632L315.499 27.676H314.903V28.176ZM294.167 28.176V27.676H293.747L293.674 28.0888L294.167 28.176ZM291.719 42V42.5H292.138L292.211 42.0872L291.719 42ZM316.619 21.3499L319.031 7.52594L318.046 7.35406L315.634 21.1781L316.619 21.3499ZM318.539 6.94L301.259 6.94V7.94L318.539 7.94V6.94ZM300.935 7.05895L296.867 10.5149L297.514 11.2771L301.582 7.82105L300.935 7.05895ZM296.698 10.8105L294.898 21.1785L295.883 21.3495L297.683 10.9815L296.698 10.8105ZM295.391 21.764H316.127V20.764H295.391V21.764ZM278.387 42.0866L283.859 10.9826L282.874 10.8094L277.402 41.9134L278.387 42.0866ZM283.69 11.2771L295.894 0.90905L295.247 0.146945L283.043 10.5149L283.69 11.2771ZM295.571 1.028L333.587 1.028V0.027998L295.571 0.027998V1.028ZM333.094 0.441227L325.786 41.9132L326.771 42.0868L334.079 0.614768L333.094 0.441227ZM326.279 41.5L312.455 41.5V42.5L326.279 42.5V41.5ZM312.947 42.0872L315.395 28.2632L314.41 28.0888L311.962 41.9128L312.947 42.0872ZM314.903 27.676H294.167V28.676H314.903V27.676ZM293.674 28.0888L291.226 41.9128L292.211 42.0872L294.659 28.2632L293.674 28.0888ZM291.719 41.5L277.895 41.5V42.5L291.719 42.5V41.5ZM330.91 42L330.418 41.9134L330.315 42.5H330.91V42ZM336.382 10.896L336.058 10.5149L335.921 10.6317L335.89 10.8094L336.382 10.896ZM348.586 0.527998V0.027998H348.402L348.262 0.146945L348.586 0.527998ZM386.602 0.527998L387.095 0.615183L387.198 0.027998H386.602V0.527998ZM383.542 17.808L383.866 18.1886L384.003 18.0721L384.034 17.8952L383.542 17.808ZM371.374 28.176V28.676H371.558L371.698 28.5566L371.374 28.176ZM354.094 28.176L353.602 28.0888L353.498 28.676H354.094V28.176ZM355.318 21.264V20.764H354.899L354.826 21.1768L355.318 21.264ZM365.686 21.264V21.764H365.871L366.012 21.6436L365.686 21.264ZM369.718 17.808L370.044 18.1876L370.179 18.0713L370.211 17.8952L369.718 17.808ZM371.554 7.44L372.047 7.52718L372.15 6.94H371.554V7.44ZM354.274 7.44V6.94H354.09L353.95 7.05895L354.274 7.44ZM350.206 10.896L349.882 10.5149L349.745 10.6317L349.714 10.8094L350.206 10.896ZM344.734 42V42.5H345.154L345.227 42.0866L344.734 42ZM331.403 42.0866L336.875 10.9826L335.89 10.8094L330.418 41.9134L331.403 42.0866ZM336.706 11.2771L348.91 0.90905L348.262 0.146945L336.058 10.5149L336.706 11.2771ZM348.586 1.028L386.602 1.028V0.027998L348.586 0.027998V1.028ZM386.11 0.440812L383.05 17.7208L384.034 17.8952L387.095 0.615183L386.11 0.440812ZM383.218 17.4274L371.05 27.7954L371.698 28.5566L383.866 18.1886L383.218 17.4274ZM371.374 27.676L354.094 27.676V28.676L371.374 28.676V27.676ZM354.586 28.2632L355.81 21.3512L354.826 21.1768L353.602 28.0888L354.586 28.2632ZM355.318 21.764H365.686V20.764H355.318V21.764ZM366.012 21.6436L370.044 18.1876L369.393 17.4284L365.361 20.8844L366.012 21.6436ZM370.211 17.8952L372.047 7.52718L371.062 7.35281L369.226 17.7208L370.211 17.8952ZM371.554 6.94L354.274 6.94V7.94L371.554 7.94V6.94ZM353.95 7.05895L349.882 10.5149L350.53 11.2771L354.598 7.82105L353.95 7.05895ZM349.714 10.8094L344.242 41.9134L345.227 42.0866L350.699 10.9826L349.714 10.8094ZM344.734 41.5H330.91V42.5H344.734V41.5Z" fill="#F4F4F4"/>
</svg>
