<svg width="480" height="83" viewBox="0 0 790 83" fill="none" xmlns="http://www.w3.org/2000/svg">
<path opacity="0.3" d="M0.148437 83L-0.836438 82.8267L-1.04285 84H0.148437L0.148437 83ZM11.0924 20.792L10.445 20.0299L10.1701 20.2635L10.1076 20.6187L11.0924 20.792ZM35.5004 0.0559959V-0.944004H35.133L34.853 -0.70611L35.5004 0.0559959ZM111.532 0.0559959L112.517 0.230366L112.725 -0.944004H111.532V0.0559959ZM105.412 34.616L106.061 35.3772L106.334 35.1441L106.397 34.7904L105.412 34.616ZM81.0764 55.352L80.4279 54.5908L78.361 56.352H81.0764V55.352ZM87.9884 55.352L88.9401 55.0447L88.7164 54.352H87.9884V55.352ZM92.4524 69.176L91.5008 69.4833L91.7245 70.176H92.4524V69.176ZM99.3644 69.176L100.349 69.3504L100.557 68.176H99.3644V69.176ZM96.9164 83V84H97.7549L97.9011 83.1744L96.9164 83ZM69.2684 83L68.3168 83.3073L68.5405 84H69.2684V83ZM60.3404 55.352L61.2921 55.0447L61.0684 54.352H60.3404V55.352ZM46.5164 55.352L45.5318 55.1776L45.3238 56.352H46.5164V55.352ZM48.9644 41.528V40.528H48.126L47.9798 41.3536L48.9644 41.528ZM69.7004 41.528V42.528H70.0704L70.3512 42.2873L69.7004 41.528ZM77.7644 34.616L78.4152 35.3753L78.6868 35.1425L78.7491 34.7904L77.7644 34.616ZM81.4364 13.88L82.4211 14.0544L82.6291 12.88H81.4364V13.88ZM46.8764 13.88V12.88H46.509L46.229 13.1179L46.8764 13.88ZM38.7404 20.792L38.093 20.0299L37.8181 20.2635L37.7556 20.6187L38.7404 20.792ZM27.7964 83V84H28.6359L28.7813 83.1733L27.7964 83ZM1.13331 83.1733L12.0773 20.9653L10.1076 20.6187L-0.836438 82.8267L1.13331 83.1733ZM11.7399 21.5541L36.1479 0.8181L34.853 -0.70611L10.445 20.0299L11.7399 21.5541ZM35.5004 1.056L111.532 1.056V-0.944004L35.5004 -0.944004V1.056ZM110.548 -0.118376L104.428 34.4416L106.397 34.7904L112.517 0.230366L110.548 -0.118376ZM104.764 33.8548L80.4279 54.5908L81.725 56.1132L106.061 35.3772L104.764 33.8548ZM81.0764 56.352H87.9884V54.352H81.0764V56.352ZM87.0368 55.6593L91.5008 69.4833L93.4041 68.8687L88.9401 55.0447L87.0368 55.6593ZM92.4524 70.176H99.3644V68.176H92.4524V70.176ZM98.3798 69.0016L95.9318 82.8256L97.9011 83.1744L100.349 69.3504L98.3798 69.0016ZM96.9164 82H69.2684V84H96.9164V82ZM70.2201 82.6927L61.2921 55.0447L59.3888 55.6593L68.3168 83.3073L70.2201 82.6927ZM60.3404 54.352H46.5164V56.352H60.3404V54.352ZM47.5011 55.5264L49.9491 41.7024L47.9798 41.3536L45.5318 55.1776L47.5011 55.5264ZM48.9644 42.528H69.7004V40.528H48.9644V42.528ZM70.3512 42.2873L78.4152 35.3753L77.1136 33.8567L69.0496 40.7687L70.3512 42.2873ZM78.7491 34.7904L82.4211 14.0544L80.4518 13.7056L76.7798 34.4416L78.7491 34.7904ZM81.4364 12.88L46.8764 12.88V14.88L81.4364 14.88L81.4364 12.88ZM46.229 13.1179L38.093 20.0299L39.3879 21.5541L47.5239 14.6421L46.229 13.1179ZM37.7556 20.6187L26.8116 82.8267L28.7813 83.1733L39.7253 20.9653L37.7556 20.6187ZM27.7964 82H0.148437L0.148437 84H27.7964V82ZM170.836 69.176V70.176H171.203L171.483 69.9381L170.836 69.176ZM178.972 62.264L179.619 63.0261L179.894 62.7924L179.957 62.437L178.972 62.264ZM187.468 13.88L188.453 14.0529L188.659 12.88H187.468V13.88ZM152.908 13.88V12.88H152.54L152.26 13.1179L152.908 13.88ZM144.772 20.792L144.124 20.0299L143.849 20.2636L143.787 20.619L144.772 20.792ZM136.276 69.176L135.291 69.0031L135.085 70.176H136.276V69.176ZM106.18 83L105.195 82.8267L104.988 84H106.18V83ZM117.124 20.792L116.476 20.0299L116.201 20.2635L116.139 20.6187L117.124 20.792ZM141.532 0.0559959V-0.944004H141.164L140.884 -0.70611L141.532 0.0559959ZM217.564 0.0559959L218.549 0.229259L218.755 -0.944004H217.564V0.0559959ZM206.62 62.264L207.267 63.0261L207.542 62.7925L207.605 62.4373L206.62 62.264ZM182.212 83V84H182.579L182.859 83.7621L182.212 83ZM171.483 69.9381L179.619 63.0261L178.324 61.5019L170.188 68.4139L171.483 69.9381ZM179.957 62.437L188.453 14.0529L186.483 13.707L177.987 62.091L179.957 62.437ZM187.468 12.88L152.908 12.88V14.88L187.468 14.88V12.88ZM152.26 13.1179L144.124 20.0299L145.419 21.5541L153.555 14.6421L152.26 13.1179ZM143.787 20.619L135.291 69.0031L137.261 69.3489L145.757 20.9649L143.787 20.619ZM136.276 70.176H170.836V68.176H136.276V70.176ZM107.165 83.1733L118.109 20.9653L116.139 20.6187L105.195 82.8267L107.165 83.1733ZM117.771 21.5541L142.179 0.8181L140.884 -0.70611L116.476 20.0299L117.771 21.5541ZM141.532 1.056L217.564 1.056V-0.944004L141.532 -0.944004V1.056ZM216.579 -0.11727L205.635 62.0907L207.605 62.4373L218.549 0.229259L216.579 -0.11727ZM205.972 61.5019L181.564 82.2379L182.859 83.7621L207.267 63.0261L205.972 61.5019ZM182.212 82L106.18 82V84L182.212 84V82ZM288.675 41.528V42.528H289.516L289.66 41.6999L288.675 41.528ZM293.499 13.88L294.484 14.0519L294.689 12.88H293.499V13.88ZM258.939 13.88V12.88H258.572L258.291 13.1179L258.939 13.88ZM250.803 20.792L250.155 20.0299L249.88 20.2643L249.818 20.6209L250.803 20.792ZM247.203 41.528L246.218 41.3569L246.014 42.528H247.203V41.528ZM212.211 83L211.226 82.8267L211.02 84H212.211V83ZM223.155 20.792L222.507 20.0299L222.233 20.2635L222.17 20.6187L223.155 20.792ZM247.563 0.0559959V-0.944004H247.196L246.915 -0.70611L247.563 0.0559959ZM323.595 0.0559959L324.58 0.229536L324.787 -0.944004H323.595V0.0559959ZM308.979 83V84L309.818 84L309.964 83.1735L308.979 83ZM281.331 83L280.346 82.8256L280.138 84H281.331V83ZM286.227 55.352L287.212 55.5264L287.42 54.352H286.227V55.352ZM244.755 55.352V54.352H243.916L243.77 55.1776L244.755 55.352ZM239.859 83V84H240.697L240.844 83.1744L239.859 83ZM289.66 41.6999L294.484 14.0519L292.514 13.7081L287.69 41.3561L289.66 41.6999ZM293.499 12.88L258.939 12.88V14.88L293.499 14.88V12.88ZM258.291 13.1179L250.155 20.0299L251.45 21.5541L259.586 14.6421L258.291 13.1179ZM249.818 20.6209L246.218 41.3569L248.188 41.6991L251.788 20.9631L249.818 20.6209ZM247.203 42.528H288.675V40.528H247.203V42.528ZM213.196 83.1733L224.14 20.9653L222.17 20.6187L211.226 82.8267L213.196 83.1733ZM223.802 21.5541L248.21 0.8181L246.915 -0.70611L222.507 20.0299L223.802 21.5541ZM247.563 1.056L323.595 1.056V-0.944004L247.563 -0.944004V1.056ZM322.61 -0.117546L307.994 82.8265L309.964 83.1735L324.58 0.229536L322.61 -0.117546ZM308.979 82H281.331V84H308.979V82ZM282.316 83.1744L287.212 55.5264L285.242 55.1776L280.346 82.8256L282.316 83.1744ZM286.227 54.352H244.755V56.352H286.227V54.352ZM243.77 55.1776L238.874 82.8256L240.844 83.1744L245.74 55.5264L243.77 55.1776ZM239.859 82L212.211 82V84L239.859 84V82ZM382.898 69.176V70.176H383.266L383.546 69.9381L382.898 69.176ZM391.034 62.264L391.682 63.0261L391.957 62.7924L392.019 62.437L391.034 62.264ZM399.53 13.88L400.515 14.0529L400.721 12.88H399.53V13.88ZM358.058 13.88V12.88H357.219L357.073 13.7069L358.058 13.88ZM348.338 69.176L347.353 69.0029L347.147 70.176H348.338V69.176ZM318.242 83L317.257 82.8265L317.051 84H318.242V83ZM332.858 0.0559959V-0.944004H332.019L331.873 -0.117546L332.858 0.0559959ZM429.626 0.0559959L430.611 0.229259L430.817 -0.944004L429.626 -0.944004V0.0559959ZM418.682 62.264L419.33 63.0261L419.605 62.7925L419.667 62.4373L418.682 62.264ZM394.274 83V84H394.642L394.922 83.7621L394.274 83ZM383.546 69.9381L391.682 63.0261L390.387 61.5019L382.251 68.4139L383.546 69.9381ZM392.019 62.437L400.515 14.0529L398.545 13.707L390.049 62.091L392.019 62.437ZM399.53 12.88L358.058 12.88V14.88L399.53 14.88V12.88ZM357.073 13.7069L347.353 69.0029L349.323 69.3491L359.043 14.0531L357.073 13.7069ZM348.338 70.176H382.898V68.176H348.338V70.176ZM319.227 83.1735L333.843 0.229536L331.873 -0.117546L317.257 82.8265L319.227 83.1735ZM332.858 1.056L429.626 1.056V-0.944004L332.858 -0.944004V1.056ZM428.641 -0.11727L417.697 62.0907L419.667 62.4373L430.611 0.229259L428.641 -0.11727ZM418.035 61.5019L393.627 82.2379L394.922 83.7621L419.33 63.0261L418.035 61.5019ZM394.274 82H318.242V84H394.274V82ZM424.273 83L423.289 82.8265L423.082 84H424.273V83ZM438.889 0.0559959V-0.944004H438.05L437.905 -0.117546L438.889 0.0559959ZM556.393 0.0559959L557.166 -0.57943L556.866 -0.944004H556.393V0.0559959ZM573.457 20.792L574.442 20.9653L574.522 20.512L574.23 20.1566L573.457 20.792ZM562.513 83V84H563.353L563.498 83.1733L562.513 83ZM534.865 83L533.881 82.8267L533.674 84H534.865V83ZM545.809 20.792L546.794 20.9653L546.874 20.512L546.582 20.1566L545.809 20.792ZM540.121 13.88L540.894 13.2446L540.594 12.88H540.121V13.88ZM519.385 13.88V12.88H518.546L518.401 13.7066L519.385 13.88ZM507.217 83V84H508.057L508.202 83.1734L507.217 83ZM479.569 83L478.585 82.8266L478.378 84H479.569V83ZM491.737 13.88L492.722 14.0534L492.929 12.88H491.737V13.88ZM464.089 13.88V12.88L463.25 12.88L463.105 13.7066L464.089 13.88ZM451.921 83V84H452.761L452.906 83.1734L451.921 83ZM425.258 83.1735L439.874 0.229536L437.905 -0.117546L423.289 82.8265L425.258 83.1735ZM438.889 1.056L556.393 1.056V-0.944004L438.889 -0.944004V1.056ZM555.621 0.69142L572.685 21.4274L574.23 20.1566L557.166 -0.57943L555.621 0.69142ZM572.473 20.6187L561.529 82.8267L563.498 83.1733L574.442 20.9653L572.473 20.6187ZM562.513 82H534.865V84H562.513V82ZM535.85 83.1733L546.794 20.9653L544.825 20.6187L533.881 82.8267L535.85 83.1733ZM546.582 20.1566L540.894 13.2446L539.349 14.5154L545.037 21.4274L546.582 20.1566ZM540.121 12.88H519.385V14.88H540.121V12.88ZM518.401 13.7066L506.233 82.8266L508.202 83.1734L520.37 14.0534L518.401 13.7066ZM507.217 82L479.569 82V84L507.217 84V82ZM480.554 83.1734L492.722 14.0534L490.753 13.7066L478.585 82.8266L480.554 83.1734ZM491.737 12.88H464.089V14.88H491.737V12.88ZM463.105 13.7066L450.937 82.8266L452.906 83.1734L465.074 14.0534L463.105 13.7066ZM451.921 82H424.273V84H451.921V82ZM648.253 41.528V42.528H649.094L649.238 41.6999L648.253 41.528ZM653.077 13.88L654.062 14.0519L654.267 12.88H653.077V13.88ZM618.517 13.88V12.88H618.15L617.87 13.1179L618.517 13.88ZM610.381 20.792L609.734 20.0299L609.458 20.2643L609.396 20.6209L610.381 20.792ZM606.781 41.528L605.796 41.3569L605.592 42.528H606.781V41.528ZM571.789 83L570.804 82.8267L570.598 84H571.789V83ZM582.733 20.792L582.086 20.0299L581.811 20.2635L581.748 20.6187L582.733 20.792ZM607.141 0.0559959V-0.944004H606.774L606.494 -0.70611L607.141 0.0559959ZM683.173 0.0559959L684.158 0.229536L684.365 -0.944004H683.173V0.0559959ZM668.557 83V84H669.396L669.542 83.1735L668.557 83ZM640.909 83L639.924 82.8256L639.716 84H640.909V83ZM645.805 55.352L646.79 55.5264L646.998 54.352H645.805V55.352ZM604.333 55.352V54.352H603.495L603.348 55.1776L604.333 55.352ZM599.437 83V84H600.276L600.422 83.1744L599.437 83ZM649.238 41.6999L654.062 14.0519L652.092 13.7081L647.268 41.3561L649.238 41.6999ZM653.077 12.88L618.517 12.88V14.88L653.077 14.88V12.88ZM617.87 13.1179L609.734 20.0299L611.029 21.5541L619.164 14.6421L617.87 13.1179ZM609.396 20.6209L605.796 41.3569L607.766 41.6991L611.366 20.9631L609.396 20.6209ZM606.781 42.528H648.253V40.528H606.781V42.528ZM572.774 83.1733L583.718 20.9653L581.748 20.6187L570.804 82.8267L572.774 83.1733ZM583.38 21.5541L607.789 0.8181L606.494 -0.70611L582.086 20.0299L583.38 21.5541ZM607.141 1.056L683.173 1.056V-0.944004L607.141 -0.944004V1.056ZM682.188 -0.117546L667.572 82.8265L669.542 83.1735L684.158 0.229536L682.188 -0.117546ZM668.557 82L640.909 82V84L668.557 84V82ZM641.894 83.1744L646.79 55.5264L644.82 55.1776L639.924 82.8256L641.894 83.1744ZM645.805 54.352H604.333V56.352H645.805V54.352ZM603.348 55.1776L598.452 82.8256L600.422 83.1744L605.318 55.5264L603.348 55.1776ZM599.437 82L571.789 82V84L599.437 84V82ZM677.82 83L676.835 82.8267L676.629 84H677.82V83ZM688.764 20.792L688.117 20.0299L687.842 20.2635L687.779 20.6187L688.764 20.792ZM713.172 0.0559959V-0.944004H712.805L712.525 -0.70611L713.172 0.0559959ZM789.204 0.0559959L790.189 0.230366L790.397 -0.944004H789.204V0.0559959ZM783.084 34.616L783.733 35.3772L784.006 35.1441L784.069 34.7904L783.084 34.616ZM758.748 55.352V56.352H759.117L759.397 56.1132L758.748 55.352ZM724.188 55.352L723.204 55.1776L722.996 56.352H724.188V55.352ZM726.636 41.528V40.528H725.798L725.652 41.3536L726.636 41.528ZM747.372 41.528V42.528H747.742L748.023 42.2873L747.372 41.528ZM755.436 34.616L756.087 35.3753L756.359 35.1425L756.421 34.7904L755.436 34.616ZM759.108 13.88L760.093 14.0544L760.301 12.88H759.108V13.88ZM724.548 13.88V12.88H724.181L723.901 13.1179L724.548 13.88ZM716.412 20.792L715.765 20.0299L715.49 20.2635L715.427 20.6187L716.412 20.792ZM705.468 83V84H706.308L706.453 83.1733L705.468 83ZM678.805 83.1733L689.749 20.9653L687.779 20.6187L676.835 82.8267L678.805 83.1733ZM689.412 21.5541L713.82 0.8181L712.525 -0.70611L688.117 20.0299L689.412 21.5541ZM713.172 1.056L789.204 1.056V-0.944004L713.172 -0.944004V1.056ZM788.22 -0.118376L782.1 34.4416L784.069 34.7904L790.189 0.230366L788.22 -0.118376ZM782.436 33.8548L758.1 54.5908L759.397 56.1132L783.733 35.3772L782.436 33.8548ZM758.748 54.352L724.188 54.352V56.352L758.748 56.352V54.352ZM725.173 55.5264L727.621 41.7024L725.652 41.3536L723.204 55.1776L725.173 55.5264ZM726.636 42.528H747.372V40.528H726.636V42.528ZM748.023 42.2873L756.087 35.3753L754.786 33.8567L746.721 40.7687L748.023 42.2873ZM756.421 34.7904L760.093 14.0544L758.124 13.7056L754.452 34.4416L756.421 34.7904ZM759.108 12.88L724.548 12.88V14.88L759.108 14.88V12.88ZM723.901 13.1179L715.765 20.0299L717.06 21.5541L725.196 14.6421L723.901 13.1179ZM715.427 20.6187L704.483 82.8267L706.453 83.1733L717.397 20.9653L715.427 20.6187ZM705.468 82H677.82V84H705.468V82Z" fill="#F4F4F4"/>
</svg>
