<svg width="456" height="83" viewBox="0 0 456 83" fill="none" xmlns="http://www.w3.org/2000/svg">
<path opacity="0.3" d="M22.7553 83L21.7705 82.8266L21.5639 84H22.7553V83ZM34.9233 13.88L35.9082 14.0534L36.1147 12.88H34.9233V13.88ZM0.363314 13.88L-0.621367 13.7056L-0.829328 14.88H0.363314V13.88ZM2.81131 0.0559959V-0.944004H1.97284L1.82663 -0.118376L2.81131 0.0559959ZM99.5793 0.0559959L100.564 0.230366L100.772 -0.944004H99.5793V0.0559959ZM97.1313 13.88L97.1313 14.88H97.9698L98.116 14.0544L97.1313 13.88ZM62.5713 13.88V12.88H61.732L61.5865 13.7066L62.5713 13.88ZM50.4033 83V84H51.2426L51.3882 83.1734L50.4033 83ZM23.7402 83.1734L35.9082 14.0534L33.9385 13.7066L21.7705 82.8266L23.7402 83.1734ZM34.9233 12.88L0.363314 12.88V14.88L34.9233 14.88V12.88ZM1.34799 14.0544L3.79599 0.230366L1.82663 -0.118376L-0.621367 13.7056L1.34799 14.0544ZM2.81131 1.056L99.5793 1.056V-0.944004L2.81131 -0.944004V1.056ZM98.5946 -0.118376L96.1466 13.7056L98.116 14.0544L100.564 0.230366L98.5946 -0.118376ZM97.1313 12.88H62.5713L62.5713 14.88H97.1313L97.1313 12.88ZM61.5865 13.7066L49.4185 82.8266L51.3882 83.1734L63.5562 14.0534L61.5865 13.7066ZM50.4033 82L22.7553 82V84L50.4033 84V82ZM94.2266 83L93.2417 82.8267L93.0353 84H94.2266V83ZM105.171 20.792L104.523 20.0299L104.248 20.2635L104.186 20.6187L105.171 20.792ZM129.579 0.0559959V-0.944004H129.211L128.931 -0.70611L129.579 0.0559959ZM205.611 0.0559959L206.595 0.230366L206.803 -0.944004H205.611V0.0559959ZM200.715 27.704V28.704H201.553L201.699 27.8784L200.715 27.704ZM173.067 27.704L172.082 27.5296L171.874 28.704H173.067V27.704ZM175.515 13.88L176.499 14.0544L176.707 12.88H175.515V13.88ZM140.955 13.88V12.88H140.587L140.307 13.1179L140.955 13.88ZM132.819 20.792L132.171 20.0299L131.895 20.2643L131.833 20.6209L132.819 20.792ZM129.219 41.528L128.233 41.3569L128.03 42.528H129.219V41.528ZM198.339 41.528L199.323 41.7024L199.531 40.528H198.339V41.528ZM195.891 55.352V56.352H196.729L196.875 55.5264L195.891 55.352ZM126.771 55.352V54.352H125.932L125.786 55.1776L126.771 55.352ZM124.323 69.176L123.338 69.0016L123.13 70.176H124.323V69.176ZM193.443 69.176L194.427 69.3504L194.635 68.176H193.443V69.176ZM190.995 83V84H191.833L191.979 83.1744L190.995 83ZM95.2114 83.1733L106.155 20.9653L104.186 20.6187L93.2417 82.8267L95.2114 83.1733ZM105.818 21.5541L130.226 0.8181L128.931 -0.70611L104.523 20.0299L105.818 21.5541ZM129.579 1.056L205.611 1.056V-0.944004L129.579 -0.944004V1.056ZM204.626 -0.118376L199.73 27.5296L201.699 27.8784L206.595 0.230366L204.626 -0.118376ZM200.715 26.704L173.067 26.704V28.704L200.715 28.704V26.704ZM174.051 27.8784L176.499 14.0544L174.53 13.7056L172.082 27.5296L174.051 27.8784ZM175.515 12.88L140.955 12.88V14.88L175.515 14.88V12.88ZM140.307 13.1179L132.171 20.0299L133.466 21.5541L141.602 14.6421L140.307 13.1179ZM131.833 20.6209L128.233 41.3569L130.204 41.6991L133.804 20.9631L131.833 20.6209ZM129.219 42.528H198.339V40.528H129.219V42.528ZM197.354 41.3536L194.906 55.1776L196.875 55.5264L199.323 41.7024L197.354 41.3536ZM195.891 54.352H126.771V56.352H195.891V54.352ZM125.786 55.1776L123.338 69.0016L125.307 69.3504L127.755 55.5264L125.786 55.1776ZM124.323 70.176H193.443V68.176H124.323V70.176ZM192.458 69.0016L190.01 82.8256L191.979 83.1744L194.427 69.3504L192.458 69.0016ZM190.995 82L94.2266 82V84L190.995 84V82ZM276.722 41.528V42.528H277.562L277.707 41.6999L276.722 41.528ZM281.546 13.88L282.531 14.0519L282.735 12.88H281.546V13.88ZM246.986 13.88V12.88H246.618L246.338 13.1179L246.986 13.88ZM238.85 20.792L238.202 20.0299L237.926 20.2643L237.865 20.6209L238.85 20.792ZM235.25 41.528L234.265 41.3569L234.061 42.528H235.25V41.528ZM200.258 83L199.273 82.8267L199.067 84H200.258V83ZM211.202 20.792L210.554 20.0299L210.279 20.2635L210.217 20.6187L211.202 20.792ZM235.61 0.0559959V-0.944004H235.242L234.962 -0.70611L235.61 0.0559959ZM311.642 0.0559959L312.627 0.229536L312.833 -0.944004H311.642V0.0559959ZM297.026 83V84L297.865 84L298.011 83.1735L297.026 83ZM269.378 83L268.393 82.8256L268.185 84H269.378V83ZM274.274 55.352L275.258 55.5264L275.466 54.352H274.274V55.352ZM232.802 55.352V54.352H231.963L231.817 55.1776L232.802 55.352ZM227.906 83V84H228.744L228.89 83.1744L227.906 83ZM277.707 41.6999L282.531 14.0519L280.561 13.7081L275.737 41.3561L277.707 41.6999ZM281.546 12.88L246.986 12.88V14.88L281.546 14.88V12.88ZM246.338 13.1179L238.202 20.0299L239.497 21.5541L247.633 14.6421L246.338 13.1179ZM237.865 20.6209L234.265 41.3569L236.235 41.6991L239.835 20.9631L237.865 20.6209ZM235.25 42.528H276.722V40.528H235.25V42.528ZM201.243 83.1733L212.187 20.9653L210.217 20.6187L199.273 82.8267L201.243 83.1733ZM211.849 21.5541L236.257 0.8181L234.962 -0.70611L210.554 20.0299L211.849 21.5541ZM235.61 1.056L311.642 1.056V-0.944004L235.61 -0.944004V1.056ZM310.657 -0.117546L296.041 82.8265L298.011 83.1735L312.627 0.229536L310.657 -0.117546ZM297.026 82H269.378V84H297.026V82ZM270.362 83.1744L275.258 55.5264L273.289 55.1776L268.393 82.8256L270.362 83.1744ZM274.274 54.352H232.802V56.352H274.274V54.352ZM231.817 55.1776L226.921 82.8256L228.89 83.1744L233.786 55.5264L231.817 55.1776ZM227.906 82L200.258 82V84L227.906 84V82ZM306.289 83L305.304 82.8265L305.097 84H306.289V83ZM320.905 0.0559959V-0.944004H320.066L319.92 -0.117546L320.905 0.0559959ZM438.409 0.0559959L439.181 -0.57943L438.881 -0.944004H438.409V0.0559959ZM455.473 20.792L456.458 20.9653L456.538 20.512L456.245 20.1566L455.473 20.792ZM444.529 83V84H445.368L445.514 83.1733L444.529 83ZM416.881 83L415.896 82.8267L415.69 84H416.881V83ZM427.825 20.792L428.81 20.9653L428.89 20.512L428.597 20.1566L427.825 20.792ZM422.137 13.88L422.909 13.2446L422.609 12.88H422.137V13.88ZM401.401 13.88V12.88H400.562L400.416 13.7066L401.401 13.88ZM389.233 83V84H390.072L390.218 83.1734L389.233 83ZM361.585 83L360.6 82.8266L360.394 84H361.585V83ZM373.753 13.88L374.738 14.0534L374.944 12.88H373.753V13.88ZM346.105 13.88V12.88H345.266L345.12 13.7066L346.105 13.88ZM333.937 83V84H334.776L334.922 83.1734L333.937 83ZM307.274 83.1735L321.89 0.229536L319.92 -0.117546L305.304 82.8265L307.274 83.1735ZM320.905 1.056L438.409 1.056V-0.944004L320.905 -0.944004V1.056ZM437.637 0.69142L454.701 21.4274L456.245 20.1566L439.181 -0.57943L437.637 0.69142ZM454.488 20.6187L443.544 82.8267L445.514 83.1733L456.458 20.9653L454.488 20.6187ZM444.529 82H416.881V84H444.529V82ZM417.866 83.1733L428.81 20.9653L426.84 20.6187L415.896 82.8267L417.866 83.1733ZM428.597 20.1566L422.909 13.2446L421.365 14.5154L427.053 21.4274L428.597 20.1566ZM422.137 12.88L401.401 12.88V14.88L422.137 14.88V12.88ZM400.416 13.7066L388.248 82.8266L390.218 83.1734L402.386 14.0534L400.416 13.7066ZM389.233 82L361.585 82V84L389.233 84V82ZM362.57 83.1734L374.738 14.0534L372.768 13.7066L360.6 82.8266L362.57 83.1734ZM373.753 12.88L346.105 12.88V14.88L373.753 14.88V12.88ZM345.12 13.7066L332.952 82.8266L334.922 83.1734L347.09 14.0534L345.12 13.7066ZM333.937 82H306.289V84H333.937V82Z" fill="#F4F4F4"/>
</svg>
