<svg width="228" height="42" viewBox="0 0 228 42" fill="none" xmlns="http://www.w3.org/2000/svg">
<path opacity="0.3" d="M11.3777 42L10.8852 41.9133L10.7819 42.5H11.3777V42ZM17.4617 7.44L17.9541 7.52669L18.0574 6.94H17.4617V7.44ZM0.181657 7.44L-0.310683 7.35281L-0.414664 7.94H0.181657V7.44ZM1.40566 0.527998V0.027998H0.986419L0.913317 0.440812L1.40566 0.527998ZM49.7897 0.527998L50.282 0.615183L50.386 0.027998H49.7897V0.527998ZM48.5657 7.44V7.94H48.9849L49.058 7.52718L48.5657 7.44ZM31.2857 7.44L31.2857 6.94H30.866L30.7932 7.35331L31.2857 7.44ZM25.2017 42V42.5H25.6213L25.6941 42.0867L25.2017 42ZM11.8701 42.0867L17.9541 7.52669L16.9692 7.35331L10.8852 41.9133L11.8701 42.0867ZM17.4617 6.94L0.181657 6.94V7.94L17.4617 7.94V6.94ZM0.673997 7.52718L1.898 0.615183L0.913317 0.440812L-0.310683 7.35281L0.673997 7.52718ZM1.40566 1.028L49.7897 1.028V0.027998L1.40566 0.027998V1.028ZM49.2973 0.440812L48.0733 7.35281L49.058 7.52718L50.282 0.615183L49.2973 0.440812ZM48.5657 6.94H31.2857L31.2857 7.94H48.5657L48.5657 6.94ZM30.7932 7.35331L24.7092 41.9133L25.6941 42.0867L31.7781 7.52669L30.7932 7.35331ZM25.2017 41.5L11.3777 41.5V42.5L25.2017 42.5V41.5ZM47.1133 42L46.6208 41.9134L46.5176 42.5H47.1133V42ZM52.5853 10.896L52.2616 10.5149L52.1241 10.6317L52.0928 10.8094L52.5853 10.896ZM64.7893 0.527998V0.027998H64.6056L64.4656 0.146945L64.7893 0.527998ZM102.805 0.527998L103.298 0.615183L103.402 0.027998H102.805V0.527998ZM100.357 14.352V14.852H100.777L100.85 14.4392L100.357 14.352ZM86.5333 14.352L86.0409 14.2648L85.937 14.852H86.5333V14.352ZM87.7573 7.44L88.2496 7.52718L88.3536 6.94H87.7573V7.44ZM70.4773 7.44V6.94H70.2936L70.1536 7.05895L70.4773 7.44ZM66.4093 10.896L66.0856 10.5149L65.9476 10.6321L65.9166 10.8105L66.4093 10.896ZM64.6093 21.264L64.1167 21.1785L64.015 21.764H64.6093V21.264ZM99.1693 21.264L99.6616 21.3512L99.7656 20.764H99.1693V21.264ZM97.9453 28.176V28.676H98.3645L98.4376 28.2632L97.9453 28.176ZM63.3853 28.176V27.676H62.966L62.8929 28.0888L63.3853 28.176ZM62.1613 35.088L61.6689 35.0008L61.565 35.588H62.1613V35.088ZM96.7213 35.088L97.2136 35.1752L97.3176 34.588H96.7213V35.088ZM95.4973 42V42.5H95.9165L95.9896 42.0872L95.4973 42ZM47.6057 42.0866L53.0777 10.9826L52.0928 10.8094L46.6208 41.9134L47.6057 42.0866ZM52.909 11.2771L65.113 0.90905L64.4656 0.146945L52.2616 10.5149L52.909 11.2771ZM64.7893 1.028L102.805 1.028V0.027998L64.7893 0.027998V1.028ZM102.313 0.440812L99.8649 14.2648L100.85 14.4392L103.298 0.615183L102.313 0.440812ZM100.357 13.852L86.5333 13.852V14.852L100.357 14.852V13.852ZM87.0256 14.4392L88.2496 7.52718L87.2649 7.35281L86.0409 14.2648L87.0256 14.4392ZM87.7573 6.94L70.4773 6.94V7.94L87.7573 7.94V6.94ZM70.1536 7.05895L66.0856 10.5149L66.733 11.2771L70.801 7.82105L70.1536 7.05895ZM65.9166 10.8105L64.1167 21.1785L65.1019 21.3495L66.9019 10.9815L65.9166 10.8105ZM64.6093 21.764H99.1693V20.764H64.6093V21.764ZM98.6769 21.1768L97.4529 28.0888L98.4376 28.2632L99.6616 21.3512L98.6769 21.1768ZM97.9453 27.676H63.3853V28.676H97.9453V27.676ZM62.8929 28.0888L61.6689 35.0008L62.6536 35.1752L63.8776 28.2632L62.8929 28.0888ZM62.1613 35.588H96.7213V34.588H62.1613V35.588ZM96.2289 35.0008L95.0049 41.9128L95.9896 42.0872L97.2136 35.1752L96.2289 35.0008ZM95.4973 41.5L47.1133 41.5V42.5L95.4973 42.5V41.5ZM138.361 21.264V21.764H138.781L138.853 21.3499L138.361 21.264ZM140.773 7.44L141.265 7.52594L141.368 6.94H140.773V7.44ZM123.493 7.44V6.94H123.309L123.169 7.05895L123.493 7.44ZM119.425 10.896L119.101 10.5149L118.963 10.6321L118.932 10.8105L119.425 10.896ZM117.625 21.264L117.132 21.1785L117.031 21.764H117.625V21.264ZM100.129 42L99.6365 41.9134L99.5333 42.5H100.129V42ZM105.601 10.896L105.277 10.5149L105.14 10.6317L105.108 10.8094L105.601 10.896ZM117.805 0.527998V0.027998H117.621L117.481 0.146945L117.805 0.527998ZM155.821 0.527998L156.313 0.614768L156.417 0.027998H155.821V0.527998ZM148.513 42V42.5L148.933 42.5L149.005 42.0868L148.513 42ZM134.689 42L134.197 41.9128L134.093 42.5H134.689V42ZM137.137 28.176L137.629 28.2632L137.733 27.676H137.137V28.176ZM116.401 28.176V27.676H115.982L115.909 28.0888L116.401 28.176ZM113.953 42V42.5H114.372L114.445 42.0872L113.953 42ZM138.853 21.3499L141.265 7.52594L140.28 7.35406L137.868 21.1781L138.853 21.3499ZM140.773 6.94L123.493 6.94V7.94L140.773 7.94V6.94ZM123.169 7.05895L119.101 10.5149L119.749 11.2771L123.817 7.82105L123.169 7.05895ZM118.932 10.8105L117.132 21.1785L118.118 21.3495L119.918 10.9815L118.932 10.8105ZM117.625 21.764H138.361V20.764H117.625V21.764ZM100.621 42.0866L106.093 10.9826L105.108 10.8094L99.6365 41.9134L100.621 42.0866ZM105.925 11.2771L118.129 0.90905L117.481 0.146945L105.277 10.5149L105.925 11.2771ZM117.805 1.028L155.821 1.028V0.027998L117.805 0.027998V1.028ZM155.328 0.441227L148.02 41.9132L149.005 42.0868L156.313 0.614768L155.328 0.441227ZM148.513 41.5H134.689V42.5H148.513V41.5ZM135.181 42.0872L137.629 28.2632L136.645 28.0888L134.197 41.9128L135.181 42.0872ZM137.137 27.676H116.401V28.676H137.137V27.676ZM115.909 28.0888L113.461 41.9128L114.445 42.0872L116.893 28.2632L115.909 28.0888ZM113.953 41.5L100.129 41.5V42.5L113.953 42.5V41.5ZM153.145 42L152.652 41.9132L152.549 42.5H153.145V42ZM160.453 0.527998V0.027998H160.033L159.96 0.441227L160.453 0.527998ZM219.205 0.527998L219.591 0.210285L219.441 0.027998H219.205V0.527998ZM227.737 10.896L228.229 10.9826L228.269 10.756L228.123 10.5783L227.737 10.896ZM222.265 42V42.5H222.684L222.757 42.0866L222.265 42ZM208.441 42L207.948 41.9134L207.845 42.5H208.441V42ZM213.913 10.896L214.405 10.9826L214.445 10.756L214.299 10.5783L213.913 10.896ZM211.069 7.44L211.455 7.12229L211.305 6.94H211.069V7.44ZM200.701 7.44V6.94H200.281L200.208 7.35331L200.701 7.44ZM194.617 42V42.5H195.036L195.109 42.0867L194.617 42ZM180.793 42L180.3 41.9133L180.197 42.5H180.793V42ZM186.877 7.44L187.369 7.52669L187.472 6.94H186.877V7.44ZM173.053 7.44V6.94H172.633L172.56 7.35331L173.053 7.44ZM166.969 42V42.5H167.388L167.461 42.0867L166.969 42ZM153.637 42.0868L160.945 0.614768L159.96 0.441227L152.652 41.9132L153.637 42.0868ZM160.453 1.028L219.205 1.028V0.027998L160.453 0.027998V1.028ZM218.818 0.84571L227.35 11.2137L228.123 10.5783L219.591 0.210285L218.818 0.84571ZM227.244 10.8094L221.772 41.9134L222.757 42.0866L228.229 10.9826L227.244 10.8094ZM222.265 41.5H208.441V42.5H222.265V41.5ZM208.933 42.0866L214.405 10.9826L213.42 10.8094L207.948 41.9134L208.933 42.0866ZM214.299 10.5783L211.455 7.12229L210.682 7.75771L213.526 11.2137L214.299 10.5783ZM211.069 6.94L200.701 6.94V7.94L211.069 7.94V6.94ZM200.208 7.35331L194.124 41.9133L195.109 42.0867L201.193 7.52669L200.208 7.35331ZM194.617 41.5L180.793 41.5V42.5L194.617 42.5V41.5ZM181.285 42.0867L187.369 7.52669L186.384 7.35331L180.3 41.9133L181.285 42.0867ZM186.877 6.94L173.053 6.94V7.94L186.877 7.94V6.94ZM172.56 7.35331L166.476 41.9133L167.461 42.0867L173.545 7.52669L172.56 7.35331ZM166.969 41.5H153.145V42.5H166.969V41.5Z" fill="#F4F4F4"/>
</svg>
