<svg width="48" height="48" viewBox="0 0 48 48" fill="none" xmlns="http://www.w3.org/2000/svg">
<g filter="url(#filter0_b_1_74)">
<path d="M33.7025 18.1141C33.0067 18.4225 32.2592 18.6308 31.4733 18.725C32.2842 18.2398 32.8908 17.4762 33.18 16.5766C32.4182 17.0291 31.5844 17.3476 30.715 17.5183C30.1303 16.894 29.3559 16.4803 28.5119 16.3412C27.668 16.2022 26.8017 16.3456 26.0477 16.7494C25.2936 17.1531 24.694 17.7945 24.3418 18.5739C23.9896 19.3534 23.9046 20.2273 24.1 21.06C22.5564 20.9825 21.0463 20.5813 19.6678 19.8824C18.2893 19.1835 17.0732 18.2026 16.0983 17.0033C15.765 17.5783 15.5733 18.245 15.5733 18.955C15.573 19.5941 15.7304 20.2235 16.0316 20.7873C16.3328 21.351 16.7685 21.8317 17.3 22.1866C16.6836 22.167 16.0807 22.0005 15.5417 21.7008V21.7508C15.5416 22.6473 15.8517 23.5161 16.4193 24.21C16.9869 24.9038 17.7771 25.3799 18.6558 25.5575C18.084 25.7122 17.4844 25.735 16.9025 25.6241C17.1504 26.3955 17.6333 27.07 18.2836 27.5533C18.9339 28.0365 19.7191 28.3043 20.5292 28.3191C19.154 29.3987 17.4557 29.9842 15.7075 29.9816C15.3978 29.9817 15.0884 29.9636 14.7808 29.9275C16.5554 31.0685 18.6211 31.674 20.7308 31.6716C27.8725 31.6716 31.7767 25.7566 31.7767 20.6266C31.7767 20.46 31.7725 20.2916 31.765 20.125C32.5244 19.5758 33.1799 18.8957 33.7008 18.1166L33.7025 18.1141Z" fill="white"/>
</g>
<defs>
<filter id="filter0_b_1_74" x="10" y="10" width="28" height="28" filterUnits="userSpaceOnUse" color-interpolation-filters="sRGB">
<feFlood flood-opacity="0" result="BackgroundImageFix"/>
<feGaussianBlur in="BackgroundImageFix" stdDeviation="2"/>
<feComposite in2="SourceAlpha" operator="in" result="effect1_backgroundBlur_1_74"/>
<feBlend mode="normal" in="SourceGraphic" in2="effect1_backgroundBlur_1_74" result="shape"/>
</filter>
</defs>
</svg>
